<?xml version="1.0" encoding="UTF-8"?><svg xmlns="http://www.w3.org/2000/svg" viewBox="0 0 985.63 1004.34"><defs><style>.cls-1{fill:#de2536;}.cls-1,.cls-2{stroke-width:5px;}.cls-1,.cls-2,.cls-3{stroke:#fff;}.cls-1,.cls-3{stroke-miterlimit:10;}.cls-4{fill:#fff;}.cls-2{stroke-linejoin:round;}.cls-2,.cls-3,.cls-5{fill:none;}.cls-3{stroke-width:6px;}</style></defs><g id="Sandy_snad"><path class="cls-4" d="M239.17,591.2c18.26,32.09,53.72,36.83,64.94,40.03,27.73,7.9,47.16-10.74,79.07-2.79,24.83,6.19,33.54,17.52,54.87,17.65,15.43,.09,45.88-7.03,56.43-18.18l-9.28,87.66-24.92,45.89-143.6-48.26-112.75-78.55,35.25-43.45Z"/></g><g id="sand"><path class="cls-3" d="M239.17,591.2c18.26,32.09,53.72,36.83,64.94,40.03,27.73,7.9,47.16-10.74,79.07-2.79,24.83,6.19,33.54,17.52,54.87,17.65,15.43,.09,45.88-7.03,56.43-18.18"/></g><g id="Hourglass"><ellipse class="cls-5" cx="516.86" cy="306.12" rx="27.85" ry="167.13" transform="translate(22.96 648.06) rotate(-65.33)"/><path class="cls-4" d="M470.04,744.21c-7.41,13.39-68.61-1.18-137.67-32.9-69.7-32.01-120.98-69.35-114.53-83.4,.04-.09,.11-.16,.15-.25-18.91-3.73-31.18-3.35-33.64,2-6.42,13.98,56.37,56.54,140.25,95.06,83.88,38.52,157.08,58.42,163.5,44.44,2.33-5.07-4.46-13.92-18.07-24.96Z"/><path class="cls-4" d="M379.26,242.92c11.65,.3,31.29,4.75,55.6,12.6,26.82,8.66,57.6,20.86,89.03,35.29,36.11,16.58,69.94,34.74,95.27,51.12,20.93,13.54,30.75,22.37,35.3,27.4-11.65-.3-31.29-4.75-55.6-12.6-26.82-8.66-57.6-20.86-89.03-35.29-36.11-16.58-69.94-34.74-95.27-51.12-20.93-13.54-30.75-22.37-35.3-27.4m-1.24-11.02c-7.11,0-11.64,1.44-13.03,4.47-6.42,13.98,56.37,56.54,140.25,95.06,65.68,30.16,124.82,48.91,150.47,48.91,7.11,0,11.64-1.44,13.03-4.47,6.42-13.98-56.37-56.54-140.25-95.06-65.68-30.16-124.82-48.91-150.47-48.91h0Z"/><rect class="cls-4" x="274.06" y="218.76" width="13" height="433.95" transform="translate(207.46 -77.33) rotate(24.67)"/><rect class="cls-4" x="565.81" y="352.33" width="13" height="435.04" transform="translate(290.06 -186.85) rotate(24.67)"/><path class="cls-4" d="M402.27,501.56c-33.08-7.08-66.56,6.1-94.36,23.45-33.14,20.14-57.47,51.72-76.9,84.75-4.99,8.7-9.83,17.53-13.79,26.73l-11.42-3.68c.14-.4,.41-1.06,.58-1.42,2.12-4.63,4.53-9.13,6.98-13.57,17.63-31.27,39.31-60.89,67.2-83.79,17.8-14.11,37.96-25.24,59.38-32.85,20.2-7.08,42.5-9.91,63.54-4.75l-1.21,5.13h0Z"/><path class="cls-4" d="M461.89,750.77c4.32-9.24,7.87-18.89,11.21-28.55,9.97-29.72,17.35-61.13,17.14-92.47-.86-30.41-8.12-63.69-24.94-89.31-5.72-8.59-12.75-16.3-21.01-22.49l3.71-5.1c4.51,3.23,8.71,6.87,12.58,10.83,19.21,19.9,29.33,46.71,34.8,73.35,7.15,32.1,4.23,65.68-3.02,97.33-4.71,20.54-10.86,40.77-19.02,60.21-.34,.78-.76,1.71-1.2,2.47l-10.24-6.26h0Z"/><path class="cls-4" d="M644.78,378.58c-.28,.79-.69,1.7-1.03,2.43-4.33,9.08-9.33,17.82-14.56,26.39-16.12,26.03-35.24,50.64-59.02,70.14-25.3,19.9-58.49,36.95-90.86,40.05-10.76,.98-21.74,.38-32.31-2.17l1.42-6.04c19.95,4.35,40.79,1.14,59.75-6.04,19.08-7.29,37.17-17.72,53.17-30.44,15.93-12.99,29.44-28.65,41.4-45.33,11.15-15.71,21.14-32.36,29.35-49.8l.76-1.69c.2-.43,.31-.75,.49-1.15-.04-.16,11.42,3.68,11.44,3.64h0Z"/><path class="cls-4" d="M388.29,262.53c-3.84,8.77-7.31,18.96-10.29,28.48-9.84,32.28-16.74,66.27-14.68,100.02,2.38,28.21,8.97,57.11,24.73,80.96,5.87,8.81,13.13,16.65,21.63,22.9l-.06,.12-1.24,2.44-.88,.64-2.7,.42,.66,.66c-27.06-19.32-40.68-51.8-47.23-83.37-7.1-31.79-4.93-65.04,1.41-96.63,4.25-20.87,9.77-41.53,17.66-61.35l.26-.58c.16-.33,.33-.65,.51-.97l10.24,6.26h0Z"/></g><g id="cRACK"><polyline class="cls-2" points="444.88 477.5 475.49 462.61 482.79 515.86"/><path class="cls-2" d="M504.13,398.88s6.67,43.27,8.27,43.67,80.78,6.38,80.78,6.38"/><polyline class="cls-2" points="551.48 385.03 578.77 376.94 623.86 405.42"/><line class="cls-2" x1="512.02" y1="351.73" x2="488.56" y2="321.68"/><polyline class="cls-2" points="434.38 366.97 438.35 325.6 362.05 338.91"/><polyline class="cls-2" points="432.27 433.12 402.07 395.61 365.02 427.24"/><polyline class="cls-2" points="447.7 515.62 427.05 474.46 406.26 496.28"/></g><g id="Flag"><polygon class="cls-1" points="461.23 355.78 481.04 349.66 512.02 351.73 502.97 370.13 544 374.49 551.48 385.03 504.13 398.88 470.73 404.36 479.82 381.25 466.22 386.47 448.88 395.41 444.3 477.22 425.64 476.02 430.95 400.63 434.38 366.97 461.23 355.78"/></g><g id="Layer_11"><g id="Layer_10"><g><path class="cls-4" d="M122.81,232.28c5.39-4.17,10.56-8.74,16.23-12.41,10.85-7.03,21.97-13.56,33.66-20.7-1.92-24.64-3.94-50.66-5.97-76.69l3.07-.78c.79,1.63,2.15,3.2,2.29,4.89,2.13,25.44,4.01,50.9,6.25,76.33,.23,2.65,1.84,5.91,3.77,7.53,20.9,17.48,41.93,34.78,63.1,51.87,4.28,3.46,6.32,7.4,6.64,13.16,1.12,20,2.7,39.96,3.75,59.96,.16,2.96-.85,6.8-2.63,8.95-14.89,18.02-30.16,35.65-45.12,53.6-3.73,4.48-6.83,4.71-11.81,1.91-19.32-10.86-39.02-20.93-58.37-31.74-3.01-1.68-6.1-5.25-7.15-8.67-8.91-28.99-17.44-58.13-25.78-87.32-.69-2.41,.17-5.93,1.37-8.3,5.42-10.71,11.23-21.19,16.89-31.76l-.19,.16Zm16.61,21.49c17.8,14.2,34.86,27.81,52.06,41.54,16.84-8.99,33.67-17.98,51.28-27.39-24.24-19.93-47.82-39.31-71.91-59.11-10.57,15.12-20.74,29.67-31.44,44.96Zm61.06,91c-4.06-14.91-7.65-28.42-11.48-41.85-.46-1.63-2.02-3.09-3.37-4.18-15.62-12.54-31.25-25.08-47.04-37.35-1.72-1.34-4.89-2.09-6.76-1.33-6.86,2.81-13.47,6.38-20.84,9.98,9.12,19.45,18.69,38.09,26.65,57.51,4.63,11.32,10.19,16.23,22.14,15.32,13.09-.99,26.39,1.09,40.72,1.9Zm45.3-70.8c-14.56,7.68-28.29,15.57-42.53,22.17-7.39,3.42-8.22,7.27-5.73,14.95,7.22,22.26,13.35,44.84,8.69,68.97-.54,2.79-.07,5.82-.07,10.83,15.27-17.99,29.26-34.42,43.13-50.98,.87-1.04,1.14-3.08,1.04-4.59-1.42-20.15-2.95-40.29-4.53-61.35Zm-44.23,77.84c-17.21,0-33.23-.47-49.2,.26-5.5,.25-11.17,3.08-13.79,10.2,20.44,10.85,40.45,21.47,60.87,32.31,.73-14.83,1.4-28.35,2.12-42.77Zm-42.94-135.94c-20.81,8.46-35.91,21.18-42.57,43.5,22.33-4.44,28.31-27.57,42.57-43.5Zm-24.36,137.07l1.98,.11c.76-3.21,2.99-7.12,2.03-9.5-4.72-11.64-10.3-22.88-15.57-34.25l-1.1,.55c4.22,14.36,8.44,28.73,12.66,43.09Z"/><path class="cls-4" d="M122.99,232.13c-2.21-.99-4.93-1.39-6.57-3.05-24.12-24.41-48.11-48.98-72.07-73.57-1.52-1.56-2.59-3.64-3.86-5.47l1.39-1.95c1.95,1.08,4.24,1.74,5.78,3.29,24.32,24.58,48.59,49.23,72.71,74.05,1.48,1.52,1.66,4.54,2.44,6.86l.19-.16Z"/><path class="cls-4" d="M122.73,92.94c1.38,1.74,3.41,3.23,4.04,5.24,10.2,32.57,20.27,65.19,30.18,97.87,.54,1.78-.54,4.14-.86,6.23-1.27-1.43-3.19-2.62-3.73-4.32-10.56-33.63-20.96-67.32-31.36-101.02-.22-.71-.03-1.56-.03-2.35l1.76-1.65Z"/><path class="cls-4" d="M104.21,274.34c-7.68,5.82-100.45-13.83-104.21-21.9,34.94,7.34,68.49,14.39,104.21,21.9Z"/><path class="cls-4" d="M28.98,309.88c23.82-4.68,47.93-6.23,73.21-7.92-3.67,6.28-61,12.41-73.21,7.92Z"/><path class="cls-4" d="M137.99,214.73c-11.11-18.12-21.14-34.49-31.18-50.87l1.83-2.27c1.49,.72,3.38,1.04,4.39,2.23,9.29,10.99,26.52,43.5,24.96,50.91Z"/><path class="cls-4" d="M108.69,252.81c-1.85-.18-3.96,.21-5.51-.64-11.6-6.32-23.13-12.78-34.54-19.49-1.61-.95-2.42-3.49-3.6-5.29,2.02,.04,4.38-.66,6,.24,11.56,6.39,22.99,13.07,34.41,19.76,1.41,.83,2.51,2.29,3.76,3.45l-.52,1.97Z"/></g></g><g id="Layer_12"><g><path class="cls-4" d="M847.65,162.98c6.66,12.42,13.49,24.75,19.87,37.34,1.41,2.79,2.42,6.92,1.61,9.76-9.81,34.32-19.84,68.58-30.32,102.67-1.24,4.02-4.87,8.22-8.41,10.19-22.75,12.71-45.91,24.55-68.63,37.32-5.86,3.29-9.5,3.03-13.89-2.24-17.58-21.11-35.55-41.84-53.05-63.03-2.09-2.53-3.27-7.04-3.09-10.53,1.23-23.52,3.09-46.99,4.41-70.5,.38-6.77,2.77-11.41,7.81-15.47,24.89-20.1,49.62-40.45,74.2-60.99,2.27-1.9,4.16-5.73,4.43-8.85,2.64-29.9,4.84-59.84,7.35-89.75,.14-1.63,1.23-3.17,2.14-4.73,.35-.6,1.05-.9,1.72-.73l1.18,.3c.73,.18,1.22,.87,1.16,1.62-2.32,29.84-4.64,59.66-6.84,87.94-.05,.58,.24,1.14,.74,1.44,13.45,8.21,26.27,15.74,38.77,23.85,6.66,4.32,12.74,9.69,19.08,14.59l-.22-.19Zm-20.15,24.26c-11.95-17.09-23.36-33.4-35.17-50.3-.52-.74-1.56-.88-2.25-.31-27.29,22.43-54.03,44.41-81.47,66.97-.85,.7-.71,2.04,.26,2.56,19.66,10.5,38.51,20.56,57.36,30.63,.54,.29,1.21,.23,1.69-.16,19.59-15.63,39.04-31.15,59.29-47.3,.64-.51,.77-1.43,.3-2.1Zm-23.09,105.96c14.05,1.06,20.58-4.71,26.03-18.02,9.16-22.38,20.16-43.87,30.68-66.24,.36-.76,.03-1.68-.72-2.05-8.12-4.01-15.49-7.94-23.13-11.07-2.2-.9-5.92-.01-7.95,1.56-18.57,14.43-36.95,29.18-55.32,43.92-1.59,1.28-3.42,3-3.97,4.92-4.33,15.16-8.4,30.41-12.93,47.12-.28,1.02,.54,2.03,1.59,1.96,16.03-1.02,30.98-3.22,45.71-2.1Zm-106.46-8.88c-.13,1.78,.2,4.18,1.22,5.4,15.5,18.5,31.14,36.87,48.07,56.82,.91,1.08,2.68,.46,2.73-.95,.12-3.61,.31-6.21-.16-8.66-5.49-28.38,1.72-54.92,10.22-81.1,2.93-9.04,1.96-13.56-6.73-17.58-16.06-7.43-31.57-16.28-47.91-24.96-.98-.52-2.19,.15-2.27,1.26-1.79,23.91-3.53,46.83-5.14,69.77Zm59.7,67.25c.06,1.13,1.27,1.82,2.27,1.29,22.86-12.13,45.29-24.04,68.19-36.2,.72-.38,1.02-1.26,.69-2.01-3.27-7.38-9.55-10.36-15.67-10.64-18.28-.84-36.61-.33-56.23-.31-.88,0-1.59,.74-1.55,1.62,.77,15.56,1.5,30.3,2.29,46.23Zm52.2-202.76c13.49,17.55,21.33,39.66,43.29,45.58,1.19,.32,2.25-.84,1.86-2-7.51-22.5-22.67-36.37-43.27-45.93-1.47-.68-2.87,1.06-1.88,2.35Zm24.87,155.19c2.97-10.11,5.94-20.21,8.9-30.32l-4.24-1.6c-3.38,7.24-6.68,14.51-9.69,21.93-1.02,2.52,1.01,6.5,2.07,10.02,.2,.67,.85,1.12,1.55,1.08h0c.65-.04,1.21-.48,1.4-1.11Z"/><path class="cls-4" d="M847.65,162.98c2.6-1.16,5.8-1.64,7.72-3.59,28.36-28.71,56.57-57.59,84.74-86.51,1.55-1.59,2.7-3.65,3.96-5.57,.35-.53,.33-1.22-.04-1.73l-.24-.34c-.44-.61-1.25-.82-1.93-.49-2,.96-4.13,1.75-5.64,3.28-28.6,28.9-57.13,57.89-85.49,87.07-1.74,1.79-1.95,5.34-2.87,8.07l-.22-.19Z"/><path class="cls-4" d="M849.12,.42c-.62-.59-1.6-.55-2.19,.08-1.47,1.58-3.14,3.09-3.73,4.99-12,38.3-23.83,76.65-35.48,115.08-.41,1.37-.02,3.02,.42,4.69,.29,1.14,1.69,1.54,2.56,.74,1.05-.97,2.04-1.97,2.43-3.19,12.42-39.55,24.65-79.16,36.88-118.78,.2-.66,.1-1.42,.06-2.17-.03-.39-.2-.75-.48-1.02l-.45-.42Z"/><path class="cls-4" d="M878.76,213.85c23.67-.46,84.37-13.29,105.91-22.26,1.73-.72,.92-3.32-.92-2.94-35.22,7.4-69.45,14.59-105.35,22.14-1.84,.39-1.53,3.09,.35,3.06Z"/><path class="cls-4" d="M949.66,252.84c-23.01-3.93-46.32-5.65-70.5-7.28-1.82-.12-2.32,2.45-.58,3.01,15.13,4.92,52.15,8.78,70.95,7.34,1.81-.14,1.92-2.76,.13-3.07Z"/><path class="cls-4" d="M833.87,136.24c11.34-18.5,21.8-35.56,32.24-52.59,.34-.56,.3-1.27-.11-1.78l-.74-.92c-.42-.52-1.13-.71-1.76-.47-1.52,.59-3.17,1.05-4.14,2.19-8.91,10.54-24.01,37.88-28.3,52.34-.51,1.72,1.87,2.76,2.81,1.22Z"/><path class="cls-4" d="M864.15,186.09c.18,.69,.81,1.16,1.52,1.14,1.85-.03,3.79,.13,5.28-.68,13.63-7.43,27.2-15.03,40.61-22.92,1.31-.77,2.17-2.45,3.04-4.11,.51-.98-.13-2.16-1.23-2.26-1.68-.15-3.35-.29-4.63,.42-13.6,7.51-27.03,15.37-40.46,23.24-1.43,.84-2.58,2.22-3.8,3.46-.38,.39-.52,.95-.39,1.47l.06,.24Z"/></g></g></g></svg>