<?xml version="1.0" encoding="UTF-8" standalone="no"?><!DOCTYPE svg PUBLIC "-//W3C//DTD SVG 1.1//EN" "http://www.w3.org/Graphics/SVG/1.1/DTD/svg11.dtd"><!-- Generated by graphviz version 2.40.1 (20161225.0304)
 --><!-- Title: finite_state_machine Pages: 1 --><svg xmlns="http://www.w3.org/2000/svg" xmlns:xlink="http://www.w3.org/1999/xlink" width="681pt" height="431pt" viewBox="0.00 0.00 681.26 431.32">
<g id="graph0" class="graph" transform="scale(1 1) rotate(0) translate(4 427.3196)">
<title>finite_state_machine</title>
<polygon fill="#ffffff" stroke="transparent" points="-4,4 -4,-427.3196 677.26,-427.3196 677.26,4 -4,4"/>
<!-- 0 -->
<g id="node1" class="node">
<title>0</title>
<ellipse fill="none" stroke="#000000" cx="462.5616" cy="-401.3196" rx="18" ry="18"/>
<ellipse fill="none" stroke="#000000" cx="462.5616" cy="-401.3196" rx="22" ry="22"/>
<text text-anchor="middle" x="462.5616" y="-397.1196" font-family="Helvetica,Arial,sans-serif" font-size="14.00" fill="#000000">0</text>
</g>
<!-- 1 -->
<g id="node3" class="node">
<title>1</title>
<ellipse fill="none" stroke="#000000" cx="225.5616" cy="-308.5196" rx="18" ry="18"/>
<text text-anchor="middle" x="225.5616" y="-304.3196" font-family="Helvetica,Arial,sans-serif" font-size="14.00" fill="#000000">1</text>
</g>
<!-- 0&#45;&gt;1 -->
<g id="edge1" class="edge">
<title>0-&gt;1</title>
<path fill="none" stroke="#000000" d="M440.6198,-397.7654C411.5011,-392.4961 358.9802,-381.0482 317.8534,-361.3196 306.3453,-355.7992 305.4238,-351.2224 294.5616,-344.5196 280.5899,-335.8981 264.3368,-327.3506 251.1154,-320.7492"/>
<polygon fill="#000000" stroke="#000000" points="252.618,-317.5878 242.1001,-316.313 249.5274,-323.8686 252.618,-317.5878"/>
<text text-anchor="middle" x="382.9157" y="-348.7196" font-family="Helvetica,Arial,sans-serif" font-size="14.00" fill="#000000">Inspect the computer</text>
</g>
<!-- 2 -->
<g id="node4" class="node">
<title>2</title>
<ellipse fill="none" stroke="#000000" cx="567.5616" cy="-308.5196" rx="18" ry="18"/>
<text text-anchor="middle" x="567.5616" y="-304.3196" font-family="Helvetica,Arial,sans-serif" font-size="14.00" fill="#000000">2</text>
</g>
<!-- 0&#45;&gt;2 -->
<g id="edge2" class="edge">
<title>0-&gt;2</title>
<path fill="none" stroke="#000000" d="M484.6495,-399.4457C508.6491,-396.1181 546.038,-386.8907 564.5616,-361.3196 569.6929,-354.2361 571.4206,-345.1128 571.5673,-336.4487"/>
<polygon fill="#000000" stroke="#000000" points="575.0547,-336.099 571.0846,-326.2762 568.0626,-336.4309 575.0547,-336.099"/>
<text text-anchor="middle" x="621.9108" y="-348.7196" font-family="Helvetica,Arial,sans-serif" font-size="14.00" fill="#000000">Inspect the lever</text>
</g>
<!-- exit -->
<g id="node2" class="node">
<title>exit</title>
<ellipse fill="none" stroke="#000000" cx="352.5616" cy="-30.0598" rx="26.1118" ry="26.1118"/>
<ellipse fill="none" stroke="#000000" cx="352.5616" cy="-30.0598" rx="30.1198" ry="30.1198"/>
<text text-anchor="middle" x="352.5616" y="-25.8598" font-family="Helvetica,Arial,sans-serif" font-size="14.00" fill="#000000">exit</text>
</g>
<!-- 1&#45;&gt;0 -->
<g id="edge3" class="edge">
<title>1-&gt;0</title>
<path fill="none" stroke="#000000" d="M219.1599,-325.6715C216.1127,-337.0662 214.6939,-351.6541 222.88,-361.3196 236.1536,-376.992 367.9216,-391.9665 430.2305,-398.2362"/>
<polygon fill="#000000" stroke="#000000" points="430.0142,-401.7318 440.3107,-399.2354 430.7047,-394.7659 430.0142,-401.7318"/>
<text text-anchor="middle" x="257.4024" y="-348.7196" font-family="Helvetica,Arial,sans-serif" font-size="14.00" fill="#000000">Back away</text>
</g>
<!-- 1&#45;&gt;exit -->
<g id="edge5" class="edge">
<title>1-&gt;exit</title>
<path fill="none" stroke="#000000" d="M207.6103,-305.2873C147.205,-293.5761 -42.118,-249.6378 8.751,-166.9196 42.1478,-112.6131 230.4118,-60.2512 313.3383,-39.4601"/>
<polygon fill="#000000" stroke="#000000" points="314.2838,-42.8317 323.146,-37.0255 312.5973,-36.0379 314.2838,-42.8317"/>
<text text-anchor="middle" x="48.4669" y="-171.1196" font-family="Helvetica,Arial,sans-serif" font-size="14.00" fill="#000000">I understand</text>
</g>
<!-- 4 -->
<g id="node5" class="node">
<title>4</title>
<ellipse fill="none" stroke="#000000" cx="53.5616" cy="-219.7196" rx="18" ry="18"/>
<text text-anchor="middle" x="53.5616" y="-215.5196" font-family="Helvetica,Arial,sans-serif" font-size="14.00" fill="#000000">4</text>
</g>
<!-- 1&#45;&gt;4 -->
<g id="edge4" class="edge">
<title>1-&gt;4</title>
<path fill="none" stroke="#000000" d="M209.3803,-300.1655C179.4157,-284.6954 115.0774,-251.4789 79.1523,-232.9316"/>
<polygon fill="#000000" stroke="#000000" points="80.3166,-229.5938 69.8253,-228.1162 77.1053,-235.8137 80.3166,-229.5938"/>
<text text-anchor="middle" x="203.7958" y="-259.9196" font-family="Helvetica,Arial,sans-serif" font-size="14.00" fill="#000000">Click the button</text>
</g>
<!-- 2&#45;&gt;0 -->
<g id="edge6" class="edge">
<title>2-&gt;0</title>
<path fill="none" stroke="#000000" d="M550.0086,-313.487C533.5789,-318.8776 509.184,-328.8726 492.88,-344.5196 485.1378,-351.9499 478.9387,-361.795 474.2141,-371.1989"/>
<polygon fill="#000000" stroke="#000000" points="471.0027,-369.8047 469.9786,-380.3499 477.3553,-372.745 471.0027,-369.8047"/>
<text text-anchor="middle" x="526.4024" y="-348.7196" font-family="Helvetica,Arial,sans-serif" font-size="14.00" fill="#000000">Back away</text>
</g>
<!-- 3 -->
<g id="node6" class="node">
<title>3</title>
<ellipse fill="none" stroke="#000000" cx="567.5616" cy="-219.7196" rx="18" ry="18"/>
<text text-anchor="middle" x="567.5616" y="-215.5196" font-family="Helvetica,Arial,sans-serif" font-size="14.00" fill="#000000">3</text>
</g>
<!-- 2&#45;&gt;3 -->
<g id="edge7" class="edge">
<title>2-&gt;3</title>
<path fill="none" stroke="#000000" d="M567.5616,-290.1202C567.5616,-278.0145 567.5616,-261.9273 567.5616,-248.187"/>
<polygon fill="#000000" stroke="#000000" points="571.0617,-247.7916 567.5616,-237.7917 564.0617,-247.7917 571.0617,-247.7916"/>
<text text-anchor="middle" x="608.0125" y="-259.9196" font-family="Helvetica,Arial,sans-serif" font-size="14.00" fill="#000000">Pull the lever</text>
</g>
<!-- 4&#45;&gt;4 -->
<g id="edge10" class="edge">
<title>4-&gt;4</title>
<path fill="none" stroke="#000000" d="M69.8519,-227.3875C79.9508,-229.2365 89.5616,-226.6806 89.5616,-219.7196 89.5616,-215.2603 85.6173,-212.6087 80.1272,-211.765"/>
<polygon fill="#000000" stroke="#000000" points="79.7503,-208.274 69.8519,-212.0517 79.9457,-215.2713 79.7503,-208.274"/>
<text text-anchor="middle" x="210.1464" y="-215.5196" font-family="Helvetica,Arial,sans-serif" font-size="14.00" fill="#000000">Clobber the DOM/Pollute the prototype</text>
</g>
<!-- 6 -->
<g id="node8" class="node">
<title>6</title>
<ellipse fill="none" stroke="#000000" cx="366.5616" cy="-130.9196" rx="18" ry="18"/>
<text text-anchor="middle" x="366.5616" y="-126.7196" font-family="Helvetica,Arial,sans-serif" font-size="14.00" fill="#000000">6</text>
</g>
<!-- 4&#45;&gt;6 -->
<g id="edge11" class="edge">
<title>4-&gt;6</title>
<path fill="none" stroke="#000000" d="M71.2867,-214.6909C123.3653,-199.9159 276.1867,-156.5595 339.0592,-138.7222"/>
<polygon fill="#000000" stroke="#000000" points="340.3659,-141.9897 349.031,-135.8932 338.4553,-135.2555 340.3659,-141.9897"/>
<text text-anchor="middle" x="287.9606" y="-171.1196" font-family="Helvetica,Arial,sans-serif" font-size="14.00" fill="#000000">Exploit Success</text>
</g>
<!-- 7 -->
<g id="node9" class="node">
<title>7</title>
<ellipse fill="none" stroke="#000000" cx="142.5616" cy="-130.9196" rx="18" ry="18"/>
<text text-anchor="middle" x="142.5616" y="-126.7196" font-family="Helvetica,Arial,sans-serif" font-size="14.00" fill="#000000">7</text>
</g>
<!-- 4&#45;&gt;7 -->
<g id="edge12" class="edge">
<title>4-&gt;7</title>
<path fill="none" stroke="#000000" d="M66.3131,-206.9968C80.9016,-192.4411 104.9889,-168.4079 122.1864,-151.249"/>
<polygon fill="#000000" stroke="#000000" points="124.9374,-153.4485 129.5443,-143.9077 119.9932,-148.4931 124.9374,-153.4485"/>
<text text-anchor="middle" x="140.7839" y="-171.1196" font-family="Helvetica,Arial,sans-serif" font-size="14.00" fill="#000000">Exploit Fail</text>
</g>
<!-- 3&#45;&gt;exit -->
<g id="edge9" class="edge">
<title>3-&gt;exit</title>
<path fill="none" stroke="#000000" d="M576.5815,-203.7908C581.4572,-192.942 585.4004,-178.504 579.5616,-166.9196 542.5142,-93.4166 446.4196,-55.8143 391.8762,-39.8278"/>
<polygon fill="#000000" stroke="#000000" points="392.7741,-36.4445 382.1989,-37.0906 390.8688,-43.1802 392.7741,-36.4445"/>
<text text-anchor="middle" x="605.4669" y="-126.7196" font-family="Helvetica,Arial,sans-serif" font-size="14.00" fill="#000000">I understand</text>
</g>
<!-- 5 -->
<g id="node7" class="node">
<title>5</title>
<ellipse fill="none" stroke="#000000" cx="458.5616" cy="-130.9196" rx="18" ry="18"/>
<text text-anchor="middle" x="458.5616" y="-126.7196" font-family="Helvetica,Arial,sans-serif" font-size="14.00" fill="#000000">5</text>
</g>
<!-- 3&#45;&gt;5 -->
<g id="edge8" class="edge">
<title>3-&gt;5</title>
<path fill="none" stroke="#000000" d="M550.3561,-213.7468C535.0027,-207.8208 512.5083,-197.6159 496.3078,-183.7196 487.0093,-175.7437 478.8009,-165.0195 472.4338,-155.3198"/>
<polygon fill="#000000" stroke="#000000" points="475.3871,-153.4412 467.1255,-146.8081 469.4475,-157.1454 475.3871,-153.4412"/>
<text text-anchor="middle" x="537.1885" y="-171.1196" font-family="Helvetica,Arial,sans-serif" font-size="14.00" fill="#000000">Read the flag</text>
</g>
<!-- 5&#45;&gt;exit -->
<g id="edge13" class="edge">
<title>5-&gt;exit</title>
<path fill="none" stroke="#000000" d="M445.1366,-118.1457C429.3587,-103.1329 402.7095,-77.7759 382.0439,-58.1125"/>
<polygon fill="#000000" stroke="#000000" points="384.3895,-55.513 374.7323,-51.1554 379.5642,-60.5842 384.3895,-55.513"/>
<text text-anchor="middle" x="436.6268" y="-82.3196" font-family="Helvetica,Arial,sans-serif" font-size="14.00" fill="#000000">Leave</text>
</g>
<!-- 6&#45;&gt;0 -->
<g id="edge14" class="edge">
<title>6-&gt;0</title>
<path fill="none" stroke="#000000" d="M380.6346,-142.6402C395.1148,-155.5428 417.1224,-177.6698 428.5616,-201.7196 454.619,-256.5028 460.9956,-328.133 462.3844,-368.9994"/>
<polygon fill="#000000" stroke="#000000" points="458.8903,-369.278 462.6477,-379.1842 465.888,-369.097 458.8903,-369.278"/>
<text text-anchor="middle" x="481.6787" y="-259.9196" font-family="Helvetica,Arial,sans-serif" font-size="14.00" fill="#000000">Run away</text>
</g>
<!-- 6&#45;&gt;1 -->
<g id="edge15" class="edge">
<title>6-&gt;1</title>
<path fill="none" stroke="#000000" d="M366.0195,-149.2928C364.4911,-172.0822 358.9769,-211.1654 339.5616,-237.7196 317.4919,-267.9043 278.2871,-288.0692 252.1069,-298.9137"/>
<polygon fill="#000000" stroke="#000000" points="250.7791,-295.675 242.7737,-302.6151 253.3597,-302.182 250.7791,-295.675"/>
<text text-anchor="middle" x="390.4073" y="-215.5196" font-family="Helvetica,Arial,sans-serif" font-size="14.00" fill="#000000">Investigate</text>
</g>
<!-- 7&#45;&gt;exit -->
<g id="edge16" class="edge">
<title>7-&gt;exit</title>
<path fill="none" stroke="#000000" d="M159.04,-123.0053C192.6905,-106.8435 270.0085,-69.7088 316.0817,-47.5806"/>
<polygon fill="#000000" stroke="#000000" points="317.6358,-50.717 325.1347,-43.2325 314.6052,-44.407 317.6358,-50.717"/>
<text text-anchor="middle" x="286.4669" y="-82.3196" font-family="Helvetica,Arial,sans-serif" font-size="14.00" fill="#000000">I understand</text>
</g>
</g>
</svg>