<svg xmlns="http://www.w3.org/2000/svg" viewBox="0 0 441.6 170">
  <defs/>
  <path d="M190.4 169.9l-20.5-.2a123.7 123.7 0 01-17-.3c-.6.5-6.3.6-6.9 0-.3-.2-.5-.2-.8 0-.5.6-1 .5-.7-.1.1-.6.1-.6-.3 0-.4.5-1.3.5-11.2.5-9.2 0-10.7 0-11-.5-.3-.2-.6-.4-.7-.3 0 .1-.3 0-.5-.2-.3-.2-.5-.1-.9.4-.3.5-.7.6-2.2.6-1.7 0-2.3-.3-1.5-.8.1 0 .3-.5.3-.9 0-.7 0-.7-.5 0-.3.3-.5.8-.5 1.1 0 .5-.2.6-1 .6-.7 0-.9-.1-.9-.7 0-.4.2-1 .4-1.4.5-.6.4-1.7-.1-1.7-.4 0-1.3.8-1.3 1 0 .2.3.3.5.3.3 0 .5.1.5.3 0 .2-.1.3-.2.3-.2 0-.5.4-.8 1-.5.9-.6 1-3 1-1.3 0-2.4-.2-2.6-.4-.1-.2-.3-.2-.6 0-.4.3-1.6.3-2.4-.1a249.5 249.5 0 01-12 .3c-5.8.2-7 .1-6.7-.2.2-.4.2-.4-.2 0-.3.1-1.2.3-2.1.3-1.4 0-1.6-.1-1.5-.6.1-.4 0-.4-.3 0-.5.7-1.4.8-1 .2.1-.2.1-.3 0-.1-.2 0-.5 0-.8-.2-.5-.3-.5-.3 0 .1.3.5.2.6-1 .6s-1.3 0-.8-.6c.4-.5.4-.7.1-.8-.2-.2-.3-.1 0 .1.1.4 0 .4-.4.3-.3-.2-.5 0-.5.4 0 .6-.3.6-13.1.6a105.3 105.3 0 01-15-.3c.2.1-.8.3-2.1.3-1.8 0-2.4 0-2.4-.4 0-.3-.1-.3-.3 0-.2.4-.7.5-2.2.3-1-.1-1.9-.4-2-.5 0-.2-.3-.3-.6-.3-.2 0-.7-.3-.9-.6-.4-.5-.4-.5-1.1.2-.6.6-.7.7-.2.7.3 0 .5 0 .5.2s-.7.3-1.6.3c-1 0-1.6-.1-1.6-.4 0-.2.2-.4.4-.4s.3-.1.2-.2c-.3-.3-1.2.2-1 .7.1.3-.2.4-1.5.4-1.2 0-1.6-.2-1.4-.5 0-.3 0-.4-.2-.2-.2 0-1.2.2-2.1.1-1 0-1.7.1-1.7.3 0 .2-.6.3-1.4.3h-1.3l1-.3 1.2-.2-1.4-.2c-.8 0-1.6 0-1.7.2-.3.5-1.3.5-1 0 .1-.6-.4-.6-.9 0-.3.5-1 .5-5.4.4l-8.3-.3c-1.9 0-3.7-.2-4-.4-1.3-.5-3.9-3.7-3-3.7.1 0 .3-.3.3-.8 0-.4-.2-.8-.4-.8-.5 0 0-1.6.7-2.3.3-.3.8-.5 1-.5.4 0 .6-.3.6-.5 0-.3-.1-.5-.2-.5l-.7.5-.7.5c-.2 0-.3-.3-.3-.5 0-.3-.2-.5-.5-.5-.6 0-.7-5.8 0-6.7.2-.6.2-.7-.2-1-.4-.2-.4-.4 0-.7.2-.2.3-.7.3-1.1 0-.4.2-.7.4-.7s.1-.3 0-.8c-.3-.5-.6-.7-.7-.7-.3.2-.2-4.4.2-6.3.2-1 .1-1.2-.1-1-.3 0-.4 0-.4-.5 0-.7.5-1.2.7-.6a134.5 134.5 0 01-.7-14c0-8.9 0-9.4.5-9.5.6-.1.6-.2 0-.2-.4 0-.5-1.7-.5-27.7C0 73 .1 60.7.3 60.8c.1.1.2 0 .2-.3 0-.2 0-.3-.2-.2-.2 0-.3-1-.3-2.5 0-2.4 0-2.6.6-2.4 1.1.4 1.8 0 1.8-1v-.5c-.1.2-.6.4-1.1.4-.5 0-1 .2-1.1.4-.3.6 0-2.3.3-3 .1-.4 0-.6-.2-.6-.4 0-.3-2.6.2-3 .2-.1.2-.2 0-.2-.4 0-.5-.7-.5-2.6 0-1.5.1-2.5.3-2.5.2 0 .3.1.2.3-.3.4.3.7 1 .4.7-.3.5-1-.5-1.1-.8 0-.8-.2-.9-1.9 0-1 .1-1.9.3-2.1.2-.3.2-.4 0-.4s-.4-.2-.4-.5c0-.2.3-.4.9-.3h.3c-.3-.1-.6-.4-.6-.5 0-.2-.1-.3-.3-.2-.2.2-.3 0-.3-.3 0-.5.1-.5 1.4-.6.4 0 .7-.3.8-.6.1-.6-.3-.7-.8-.2-.6.6-.8.2-1-1.3-.3-1.2-.3-1.3.5-1.2.6 0 .9 0 1-.5.1-.7-.5-1.5-1.3-1.5-.7 0-.8-1.1-.1-2.4.4-.9.4-1 0-1-.4-.1-.5-.6-.5-1.6 0-.8.1-1.4.3-1.3.1.1.4-.4.5-1.1.3-2 .4-10.5.1-10.5-.1 0-.3.1-.3.3 0 .2-.1.3-.3.3C0 13 0 6.4.2 5.5c.1-.2.4-.5.7-.5.4 0 .4 0 .1-.4-.5-.5-.5-1 0-.6.3.2.8.3 1 .2.3-.1 1 0 1.6.3 1.2.6 2.2.7 1.6.1-.5-.4-.5-1 0-.7L5 3.5c-.3-.6-.5-.6-.9-.2-.5.6-.5.6-.6-.6 0-1 0-1 1.4-1 1.2 0 1.4 0 1.3-.4-.1-.2 0-.4.3-.4.2 0 .4.3.5.7.1.6.1.6.6.1.3-.3.6-.4.7-.3.2.1.2 0 .2-.1 0-.2.3-.4.7-.4.6 0 .8 1.2.2 1.2-.1 0-.2.2 0 .4.3.6.7.3.7-.7 0-.7.2-1 .9-1.3 1-.3 1-.3 1 0 0 .6.1.7 1 .2 1.2-.6 5.7-.7 5.9 0 0 .2.2.2.6-.1.6-.5.6-.4.7.7 0 .4.3.7.6.8.4 0 .5-.1.5-.7 0-.5 0-.7.4-.6 1.7.5 3 .6 4 .4 1-.2 1-.3.4-.3-.5 0-1-.2-1-.4-.4-.4 4.7-.4 5.2.1.3.3.4.3.2 0-.3-.5 1.8-.4 2.1 0 .2.3.3.3.3 0 0-.5 1-.5 1.6.1.4.4.6.4.8.1.1-.2 0-.3-.1-.1-.2 0-.5 0-.6-.2-.1-.2.3-.3 1.4-.2 1 0 1.5.2 1.4.5 0 .2.2.3.5.2.4-.2.4-.3 0-.5-.2-.2 5.7-.3 13.6-.2a142 142 0 0114.5.2c1.2-.4 4.4-.4 4.1 0a64.8 64.8 0 0113.6 0c0 .2.2.4.4.4s.2-.2.1-.4.8-.3 2.7-.2c1.6 0 3 .1 3 .3 0 .1 0 .3.3.3.2 0 .2-.2.1-.4-.1-.1 0-.3.1-.3.2 0 .4.2.5.3.2.2.4.4.6.4.3 0 .2-.2 0-.4-.5-.2-.5-.3 0-.3.3 0 .6.2.6.4s.2.3.4.2c.2-.1.6 0 .9.2.3.3.3.2.2-.2-.2-.4 0-.6.2-.6.3 0 .5.2.5.3 0 .2.4.3.8.2.4 0 .7-.1.6-.2 0-.2.2-.3.7-.3.4 0 .8.2.8.3 0 .2-.3.3-.6.2-.4-.2-.4-.1 0 .2.6.3.7.3 1-.2.3-.6 3.3-.7 3.5 0 .2.2.2.2.2 0 0-.4 1-.5 3.4-.5 2.5 0 3.4.1 3.4.4 0 .3 0 .3.3 0 .1-.3.3-.3.4 0l.6.3c.3 0 .2-.2 0-.4-.5-.2-.4-.3 0-.3s1 .2 1.3.4c.5.3.7.3.8 0 0-.2.5-.4 1-.4.8 0 .8.1.2.4-.5.2-.2.2.9.2.8 0 1.5 0 1.5.2a119.5 119.5 0 018.6-.2c1.6 0 2.9-.2 3-.4.2-.2.2 0 .1.3-.2.5 0 .5.9.4a38.5 38.5 0 0111.3.2c.3.2.6.2.8 0 .3-.3 1.7-.4 4.2-.4a93 93 0 0114.5-.6c9 0 10.7 0 10.7.4 0 .3.3.5.8.5.4 0 .8.2.8.4 0 .3 0 .3.3 0 .2-.4.4-.4 1 0 .9.6 1.8.7 3.5.2 1.2-.4 1.8-1 .7-.9-.3 0-.5 0-.6-.3-.1-.2.5-.4 2.3-.3 1.3 0 2.3 0 2.2.2-.1.3.6.7 1.3.7.7 0 .6-.6 0-.8l1-.1c1 0 1.4 0 1.1.2-.3.2-.6.2-.7.2-.2-.1-.3 0-.3.1 0 .2.3.4.7.4.3 0 .6.1.4.3 0 .2 0 .3.4.3.3 0 .4-.1.3-.3-.3-.4 0-.4 1.3 0 1.4.6 1.8.1.8-.7-.8-.6-.7-.6 9.5-.5h10.4l-1.7.7-1.8.7h1.6c1.6.2 2.4-.2 2.4-1 0-.4.6-.5 2.1-.5h2.1l-.5.9-.6.9 1-1c.8-.8 1-.8 3.4-.7 1.9 0 2.6.2 2.5.5 0 .2.1.4.3.4.2 0 .3-.2.2-.5-.2-.6 0-.6.8-.1.5.2.6.2.4 0-.1-.3.4-.4 1.4-.4 1.6 0 2.2.5 1.1.8-.5.1-.5.1 0 .1.3 0 .7-.1.8-.4 0-.3.5-.5 1-.5s.6.2.5.5c-.1.3 0 .5.1.5.2 0 .3.4.3.8 0 .5.1 1 .4 1 .2 0 .2 0 0-.1-.5-.3.4-1.4 1.1-1.4.7 0 .7 0 0-.3l-.6-.3h.6c.6 0 .6-.1.2-.4-.3-.2.3-.3 2.2-.3 2 0 2.6.1 2.4.4-.2.3-.1.3.2 0 .3-.2 1.5-.4 3.3-.4 2.4 0 2.8.1 2.8.6 0 .4 0 .4.6 0 .7-.7 1.6-.7 1.6-.1s.3.6.9 0c.5-.5 2.3-.5 2.7 0 .2.2.3.2.3 0 0-.7 1.5-.6 1.7 0 .1.6.1.6.1 0 0-.5.4-.5 3.4-.4 1.9 0 3.3.1 3.2.3-.2.4 1 .6 1.3.2.3-.2.2-.3 0-.1h-.5c0-.5 43.2-.6 43.8-.1.4.4 2 .2 4.2-.4 1-.2 2.3-.3 3.5-.1l5.3.2c1.9 0 3.4.1 3.4.3l.3.3c.2 0 .3-.2.2-.3 0-.1 10-.3 22.4-.3 21.2 0 22.5 0 22.3.5-.1.5 0 .5.3 0 .4-.5 1-.6 3.1-.5 2.5 0 2.6 0 2.5.7-.2.8.8 1.5 1 .8 0-.1.4-.3.7-.3.4 0 .4 0 0-.4-.4-.1-.9-.2-1.1-.1-.3 0-.4 0-.3-.3.2-.4 1.2-.5 5.8-.5h5.5V1c0 .5.2.8.4.8s.2-.1.1-.3c0-.1 0-.3.2-.4.4-.2.4-.2 0-.2-.5 0-.4-.7.1-.7.3 0 .5.2.5.3 0 .2.2.4.3.4.2 0 .3-.2.2-.4-.1-.1 0-.3.3-.3.4 0 .5.2.4.7-.2.5-.1.6.3.3.2-.2.3-.6.2-.7 0-.2 0-.3.3-.2.2 0 .4.4.3.6 0 .3 0 .3.5-.1.6-.6 2.6-.7 2.7-.1 0 .2 0 .2.2 0 .3-.6 4.7-.5 4.6 0 0 .3.2.4.5.3.4-.2.4-.3 0-.5-.2-.2.2-.3 1.2-.3s2 .2 2.3.5c.8.6 3.7.6 4.3 0 .4-.6 3.5-.6 4.6 0 .4.1.5.1.3-.1-.3-.6 1.2-.4 1.8.2.4.2.6.3.6.1l-.4-.5c-.7-.3 1.4-.2 2.2.1a46 46 0 018.6-.2c4.5 0 8 .2 8 .3-.1.2 5.3.7 7.3.6.9 0 1.8.1 2 .3.5.2 1 0 1.8-.3 1.3-.7 2.6-.8 3.5-.3.4.2.7.2.8 0 .3-.5 1.7-.4 2 .1 0 .3.4.5.7.5.9 0 1.6 1.3 1.4 2.5 0 .9 0 1 .6 1h.7l-.7.4c-.4.1-.7.4-.7.6 0 .1.2.2.4.1.4-.1.5.1.5 1 0 .6.2 1.3.5 1.6.6.6.7 3 .2 3-.2 0-.3.3-.3.5 0 .3.1.5.3.5.5 0 .4.7-.2 1.1-.5.4-.5.7-.1 3 .3 2 .3 2.6 0 3.2-.3.6-.3.7 0 .6.2 0 .5.2.5.5.1.4 0 .6-.7.6-.9 0-1 .4-.3 1.6.3.4.4.5.3.2 0-.3 0-.6.2-.6.4 0 .7.6.4 1a3 3 0 00-.2 1.5c0 .6 0 1.3-.2 1.7-.3.5-.3.6.1.6s.5.5.5 2.6c0 2.4 0 2.6-.6 2.4-.5-.1-.5-.1 0 .3.5.3.6 1 .6 4.1 0 3.3 0 3.7-.6 3.9-.5.1-.5.1 0 .1s.6.4.5 2.2c0 1.2-.2 2.3-.4 2.4-.2.2-.2.3 0 .3.3 0 .4.9.4 2.5 0 2.3 0 2.6-.5 2.6-.3 0-.4-.1-.1-.2.5-.2.5-1 0-1-.1 0-.2 0-.1.2s0 .4-.1.5c-.6.4-.4 1.4.3 2 .5.6.6 1 .5 1.6-.5 1.8-.7 3.9-.5 3.7.2 0 .3 0 .3.2s-.2.4-.3.4c-.2 0-.4.6-.4 1.3 0 1.1.1 1.2.5.9l.5-.2c0 .4-1 1.2-1 1l-.3.6c-.3 1.4-.3 6.2 0 5.7.2-.3.3-.3.5-.1 0 .2 0 .4-.3.5-.7.3-.6 1.8.1 2 1 .2 1.1 1.2.6 2.2-.3.5-.5.8-.5.5 0-.2-.3-.4-.5-.4-.4 0-.5.6-.5 3.6v3.5h1.9v2.3c-.1 2-.2 2.3-.7 2.2-.4 0-.6.2-.6.7 0 .5.1.8.3.8.7 0 1 .1 1 .8-.1.5-.3.7-.6.6-.3-.1-.4.7-.3 4.4 0 3.7 0 4.4.5 4.3.2-.1.4 0 .4.1 0 .2-.2.4-.5.5-.3.2-.5.5-.4.8l-.3 1.8a22 22 0 00-.4 7.2c.1 0 .4-.1.5-.3.1-.2 0-.3-.1-.3-.2 0-.2-.3-.1-.7 0-.4.2-.5.3-.3 0 .2.3.4.6.4.7 0 .3 1.3-.6 1.7-.7.4-.7.5-.2.7.5.2.5.3.1.6-.5.6-.6 3.4 0 3.4.2 0 .2 0 0 .2-.2.1-.4.7-.4 1.3-.1.7 0 1 .3 1 .7 0 1-.6.6-1-.3-.4-.3-.6 0-.7l.3-.1c.4 1.2.3 1.8-.3 2-.4 0-.7.4-.7.7 0 .2.2.4.3.3.2-.1.2 0 .2.4-.1.3 0 .8.3 1 .4.4.4.6.1.7-.3.2-.3.3 0 .5.5.3.5.4 0 .7-.3.3-.3.4 0 .6.5.3.5.4 0 .4-.7 0-.7 2.5 0 3 .5.4.5.4-.2.3-.3-.1-.7 0-.7.1 0 .2.4.5.7.7.5.2.6.3.3.3-.4 0-.4 0 0 .4.4.2.3.3-.3.3-.7 0-.8 0-.3.3.4.3.5.6.4 1 0 .3 0 .6.2.6s.3 1 .3 2.5c0 2.5 0 2.6-.8 2.5-.4 0-.6-.2-.5-.4l-.3.1c-.4.3-.6.3-.8 0-.3-.1-.4 0-.4.3s.4.5.9.5h1.3c.5.1.8 1.5.3 1.5a.6.6 0 01-.4-.2c-.3-.3-2.8 0-2.8.3 0 .1.2.3.4.3.3 0 .6.2.9.4.2.3.7.5 1 .5.5 0 .6.2.4.7a6 6 0 00-.1 1.1c0 .6-1.3.9-1.8.5-.3-.2-.6-.3-.8-.2-.5.3-.4 1.4.1 1.4.3 0 .5.2.5.4 0 .1-.3.3-.8.3-.4 0-.8.2-.8.4 0 .5 1.2 1.8 1.6 1.8.5 0 .4-.5-.2-1-.4-.5-.4-.6 0-.6.3 0 .5.2.5.4 0 .1.2.2.4 0 .3 0 .3 0 .2.4-.2.4 0 .5.6.5.4 0 .9.3 1 .6.5.8.2.9-.4.2-.6-.5-1.4-.6-1.4-.2 0 .2 0 .4.2.4s.4.6.5 1v.6c-.1-.3-1-.6-1-.3l.6 1.9c.5 1.2.7 2.5.8 4.4 0 1.8.1 2.8.4 2.8.2.1.4.3.4.5s-.2.3-.5.2c-.8-.4-.8.3 0 1.3 1 1.2 1 2-.2 2.2-.7.1-1 .3-1.1 1.2-.1.7 0 1.3.1 1.5.5.5.5 1.2 0 1.1-.3 0-.4.6-.6 2 0 1.2-.2 2.3-.4 2.5-.1.3 0 .4.1.4.2 0 .3.2.3.5s-.1.5-.3.5c-.2 0-.3-.2-.3-.4 0-.3 0-.3-.2 0-.3.3-2.4 1.7-3.9 2.4-1.6.8-7 1.5-14.4 1.7a23.4 23.4 0 01-7.5-.2c-.1.1-2 .3-4.1.3-2.6 0-3.8 0-3.7-.3.2-.2 0-.3-.1-.3-.2 0-.3.1-.3.3a44.7 44.7 0 01-11 0c0 .2-.2.3-.7.3-.7 0-.8-.1-.7-.5.1-.3 0-.4-1-.4s-1.4.1-1.4.4c0 .4-.4.5-1.9.5s-1.9 0-1.9-.5c0-.2-.1-.4-.3-.4-.2 0-.2.2-.1.4.1.4-.1.5-1.2.5-1.2 0-1.7-.4-.9-.7.2-.1-.2-.2-.9-.2-.8 0-1.5.1-1.7.5-.3.3-1 .4-2.6.3-2.6-.1-3-.4-1.4-.7 1.3-.2 1.8-.8.6-.8-1 0-2.8.9-2.6 1.2.1.2-2 .3-4.6.3-3.7 0-4.7 0-4.6-.3.2-.3.1-.3-.2 0-.7.6-3 .5-3.5-.1-.3-.6-.4-.6-.2 0 .1.4 0 .5-.6.5-.4 0-.8-.2-.9-.5-.1-.6-.1-.6-.2 0 0 .4-.3.5-.8.4-.5 0-.8-.2-.7-.4.1-.3-.4-.4-2-.4-2.1 0-2.2.1-1.6.5l.8.4h-.8c-.4 0-1-.2-1.4-.5-.5-.5-.6-.5-.4 0 .2.5-.8.5-12.8.5-11 0-13 0-13-.4s-.2-.5-1.2-.3a4 4 0 00-1.5.4c-.5.5-1.4.4-1.5-.2-.2-.6-.2-.6-.2 0 0 .3-.3.5-.7.5-.5 0-.6 0-.3-.5V168c-.2-.6-.3-.6-.3.2 0 .4-.2 1-.4 1.2a357.8 357.8 0 01-33.4 0c.4.6-4.5.4-5-.3-.3-.4-.3-.4 0-.1.3.2.7.4 1 .4.3 0 .3-.1 0-.6-.4-.6-.5-.6-1.2-.2-.5.4-1 .4-2 .3-1-.2-1.3-.1-1.1.1.1.2 0 .4-.1.4a.3.3 0 01-.4-.3c0-.2-.1-.3-.3-.2-.4.3-3.9.3-8.8 0-3.3-.2-3.7-.1-4 .4-.1.3-.3.4-.3.2s-.8-.4-2.2-.4l-9-.3c-4.8-.2-8-.2-10.3 0-4 .4-15 .8-14.8.6l-3.3-.5c-2.7-.1-3.4 0-3.7.2-.2.4-.2.4-.2 0 0-.3-.6-.3-2.8-.1a9 9 0 00-3 .4c0 .2-.4.3-.9.3-.8 0-.8 0-.2-.3a216.5 216.5 0 01-10 .2l-9.4.2h-5zm-136.3-.7c0-.2-.2-.3-.3-.3-.2 0-.4.1-.4.3 0 .2.2.3.4.3.1 0 .3-.1.3-.3zm29.6 0l-.1-.3-.6.3c0 .2 0 .3.2.3.1 0 .4-.1.5-.3zm64 0h-1c-.4.2-.2.2.3.2.6 0 .8 0 .6-.1zm141.8-.8c.3-.2.2-.3-.4-.4-.5 0-.7.1-.7.7s0 .7.4.4l.7-.7zm44 .8c0-.1-.3-.4-.6-.5-.4-.1-.4 0-.1.3.5.6.6.6.6.2zm68.2-1.2c-.2-.4-.7.3-.5.8.2.4.2.4.4-.1l.1-.7zm-319.6.4c0-.2 0-.5.2-.6.3-.1 0-.1-.5-.1-1 0-1 .1-.3.7s.9.6.6 0zm3.9-.5c-.2-.6 0-1 .2-1s.2 0-.1-.3c-.7-.4-1 0-.6.9.4 1 .4 1-.3.8-.5-.1-.5 0 0 .2.7.6 1 .4.8-.6zm326.1 0h-.5c-.4 0-.7.2-.7.5 0 .5 0 .5.5.1l.7-.5zm-339.3.2l-.3-.5c-.1 0-.2.2-.2.5 0 .2.2.4.3.4.2 0 .3-.2.2-.4zm11.4 0c0-.1-.3-.2-.7-.2-.4 0-.6.1-.5.3.2.3 1.2.1 1.2-.2zm-12.2-.5c0-.3-.2-.6-.5-.6-.6 0-.6.3 0 .8.4.5.5.5.5-.2zm8 0c0-.2-.1-.3-.3-.2-.2.1-.3.4-.3.5 0 .2.1.3.3.2.2-.1.3-.4.3-.6zm-36.6.1h-.6c-.2 0-.2.2.2.2s.5 0 .4-.2zm75-.8c0-.1-.1-.3-.3-.3-.2 0-.3.2-.2.3l.4.4.1-.4zm-42.1-1.2c-.1-.5-.3-1-.5-1-.4 0-.3.4 0 1.5.5 1 .7.9.5-.5zm3.9 1c-.1-.3-.5-.4-.8-.4-.4 0-.4.1.1.3.9.4.9.4.7 0zm-39.9-.4c0-.2-.1-.3-.3-.3-.2 0-.3.1-.2.3l.4.3.1-.3zm2.6-.1l-.3-.4c-.2 0-.4 0-.4.2s.2.3.4.3l.3-.1zm30-.3l-.4-.4c-.3 0-.4 0-.3.2.2.3.8.4.8.2zm189.2-5c0-.4-1.3-.7-1.7-.4-.2 0 0 .3.4.4 1.2.3 1.3.3 1.3 0zm2 0c0-.4-.4-.4-1 0-.4.2-.4.3.2.3.4 0 .7-.2.7-.3zm164-.2c-.3-.4-.2-.5.2-.5.3 0 .5-.1.3-.3-.1-.2-.3-.2-.6 0-.4.3-.4.5-.1.8l.5.5-.2-.5zm-185.5-.3l-.4-.3c-.1-.1-.3 0-.3.1 0 .2.2.3.3.3l.4-.1zm2.4 0c0-.2-.3-.2-.6 0-.2 0-.2.1.2.1s.5 0 .4-.2zm127.2-1.1c0-.2-.3-.4-.6-.5-.4-.2-.4-.1 0 .3.4.6.6.6.6.2zm54.9-.5c-.3-.3-.5-.4-.5-.3 0 .4.7 1.1.9 1 0-.1-.1-.4-.4-.7zM1.9 159l-.3-.3c-.2-.1-.3 0-.3.1 0 .2.1.4.3.4.2 0 .3-.1.3-.2zm20.2-.6c.2-.3.2-.5-.1-.6-.3-.1-.4 0-.4.4 0 .8 0 .8.5.2zm3.6-.5c-.1-.5-.3-1-.5-1-.3 0-.3.2 0 1.2s.6.9.5-.2zm192.2.3c0-.2-.1-.3-.3-.3-.2 0-.3.1-.3.3 0 .2.1.3.3.3.2 0 .3-.1.3-.3zm2.6.2c-.4-.3-2-.5-2-.2 0 .2.5.3 1 .3h1zm39 0l-.3-.4c-.2 0-.3 0-.3.2s.1.3.3.3l.3-.1zm-202.4-.8c.1-.2 0-.4-.1-.4-.2 0-.4.2-.4.4l.2.3.3-.3zm279-1.4c.4.1.5 0 .4-.4-.3-.7-.8-.5-1.8.8-1.2 1.4-1.2 1.7 0 .5.4-.6 1-1 1.4-.9zm0 1c-.1-.3-.2-.6-.3-.5-.2.2.1 1.2.3 1.2v-.7zm36.7-.1l-.6.1-.7.5.7-.1.6-.5zm-42.2-.2c0-.1 0-.5.2-.8.2-.5.1-.5-.5 0-.4.4-.6.7-.5.9.2.3.8.3.8 0zm10.5 0c0-.1 0-.3-.2-.4-.2-.1-.3 0-.3.3 0 .2.1.4.3.4.1 0 .2 0 .2-.3zm82.9-.1c-.3-.4-.5-.4-.8-.2-.7.5-.6.6.4.6.7 0 .7 0 .4-.4zm-365.7-.3c.6 0 .8 0 .7-.4-.2-.5-.8-.5-1.1 0-.2.3-1 0-1-.4 0-1.1 3.1-2.4 3.7-1.6.1.3.2.3.2 0 0-.2 1-.3 3.2-.3 2 0 3.2 0 3 .3 0 .1.1.2.6 0 .4-.2 2.1-.3 3.8-.4 3.3 0 3.4 0 3.2 1.4 0 .4.6.2.8-.3.1-.2.3-.4.5-.4s.2 0 .1.2c-.3.6.4 1 1.2.9.7-.2.8-.3.5-.7-.3-.3-.5-.3-.8.1-.4.5-.5.5-.4-.2.1-.8.3-.8 2-1 1.6 0 1.8 0 1.9.7.1 1 .9 1.2.9.3 0-.3-.2-.7-.4-.8l.8-.2c1.3 0 2.2.3 2 .7-.1.2 0 .3.1.3.2 0 .4-.2.4-.5s.1-.5.3-.5c.2 0 .3.3.3.6 0 .5 0 .5.4 0 .2-.5.7-.6 2.4-.6 1.1 0 2 .1 1.9.3-.3.4.9.3 1.2 0 .2-.3.3-.3.4 0 .2.4 3 .5 3 0a315.8 315.8 0 0130.6 0c.1-.1.3-.3.5-.3.1 0 .2.2 0 .3 0 .3.2.3.7 0a8 8 0 013 0c1.5.3 2.5.3 2.6.1.3-.4 1.3-.3 1.3 0 0 .5 3.1.5 3.5 0 .3-.4 1.7-.5 1.5 0a4741.4 4741.4 0 0163-.2c62.2-.2 62-.2 61.4 1h.2a3 3 0 011.3-.3c.7 0 .9 0 .7-.4-.1-.4 1.1-.5 8.5-.5 7.1 0 8.8.1 9 .5 0 .2.3.4.5.3.3-.1.4-.3.3-.5 0-.1.7-.3 1.8-.3 1.5 0 2 .1 2 .5 0 .3 0 .5.3.5.2 0 .2-.2.2-.4-.3-.7 5.5-.7 6.2 0 .3.2.8.4 1 .3.4-.2.5-.1.3.1 0 .2.2.3 1 .2.7 0 1-.2 1-.6-.1-.5.2-.6 2.3-.6 1.6 0 2.3.1 2.4.4 0 .3 0 .3.1 0 .1-.2.8-.4 1.6-.4.9 0 1.4.1 1.3.3-.1.2 0 .4.1.4.2 0 .3-.2.3-.4s.4-.3 1-.2l2.4.5c1 .2 1.4.1 1.7-.2.3-.5.4-.5.7 0 .2.2.3.3.3 0a153.8 153.8 0 0123.3 0c.2-.6 1.3-.4 1.4.3.1.6.1.6.8 0 .6-.6 1.2-.6 8.7-.6 6.3 0 8.1 0 8.3.4.2.4 1.4.6 2.6.5.2 0 .4-.3.4-.6s0-.4.2-.1c.2.4 3 .5 3 0 0-.1.4-.2 1-.2s1.6-.1 2.2-.3a3 3 0 012.4.5c1.2.7 2 .9 2 .4 0-.2.3-.4.5-.4.3 0 .5.2.4.3-.1.2.2.3.6.2.4 0 .8 0 .8.3 0 .2 0 .2.2.1.1-.1 0-.4-.2-.7-.3-.4-.3-.5 0-.5.4 0 .8.3 1 .6.3.5.3.5.1 0 0-.4 0-.6.6-.6 1 0 1.2.3.8 1-.4.4-.4.4.1 0 .3-.2.5-.6.4-.8-.2-.2 0-.1.3.1.4.3.5.4.4.1-.1-.2 0-.4 0-.4.3 0 .5.2.6.4.1.3.2.3.4 0 .2-.6 1-.4 1 .2 0 .5.2.6.7.5.3-.1.6-.4.6-.6 0-.2.2-.1.3.2.3.4.4.4.5 0 .2-.4.7-.6 1.7-.6.8 0 1.3 0 1.2.3-.1.1 0 .3.1.3.2 0 .4-.2.4-.4s1-.3 2.8-.2c1.7 0 2.7.2 2.6.4 0 .2-.3.3-.5.3s-.3 0-.3.2c.1.2.7.3 1.2.3.6 0 .8-.1.5-.2-.3 0-.4-.4-.4-.6.2-.5 1.1-.3 1.6.4.2.3.5.4.7.3.2-.1.5 0 .6.2v-.3c-.3-1 .6-1.3 1.3-.6.3.3.6.5.8.5.4 0 .3-.6-.1-.8l.6-.2c1 0 1 .1 1 .7s0 .8.7.8h.3c-.6-.2-.5-1.5 0-1.5.2 0 .3.2.2.4-.1.3 0 .5.5.5.3 0 .6-.1.6-.3 0-.2-.2-.2-.4 0-.3.1-.3 0 0-.2.4-.6 1.5-.3 1.5.3 0 .2-.2.4-.4.4s-.4.2-.3.4c0 .4.6.2 1-.3l.8-.4c.3 0 .5-.2.4-.5 0-.2 0-.3.2-.2.3.3.4 1.2.1 1-.1 0-.5.1-.8.4-.6.4-.6.5.1.4.5 0 1 0 1.3.2.3.2.4.1.2-.3 0-.3 0-.5.2-.5.3 0 .3 0 0-.2-.2-.1-.4-.3-.4-.6 0-.6 5.7-.4 7 .2.4.3 1.5.5 2.2.6 1.1 0 1.4 0 1.5-.6.2-.7.5-.7 6.4-.7 3.4 0 6.4-.1 6.8-.3.8-.3 1.4 0 1.2.6-.1.4-.1.4.2 0 .2-.3.2-.5 0-.8-.2-.3-.3-.4 0-.4s1.5-2.6 1.7-3.7c0-.5.2-1 .4-1.2.2-.2.2-.2 0-.3-.4 0-.5-1.1-.5-4.6 0-2.7.2-4.6.4-4.5l.2 1c0 .6.2.7.6.6l.8-.6c.2-.2.2-.2.2 0 0 .3.2.4.4.3.5-.3.3-1.4-.2-1.4-.2 0-.5.1-.5.3-.1.2-.4.1-.8-.2-.4-.4-.6-.8-.5-1 0-.2 0-.4-.2-.4-.3 0-.4-6.8-.4-21.6 0-20.2 0-21.6.6-22 .5-.3.5-.3 0-.1-.6.1-.6-.5-.6-11 0-8.7 0-11 .4-10.7.3.2.3.1 0-.3-.2-.2-.3-.9-.3-1.4 0-.8.2-1 1.4-1h1.7c.2 0 .3-.4.3-.8-.1-.5-.4-.7-1-.8-.5 0-.6 0-.3.2.4.2.3.4-.2.7-.4.2-.7.2-.7.1l-.7.2c-.6.3-.6.2-.6-3 0-2.5.1-3.4.4-3.4.3 0 .3 0 0-.3-.3-.2-.2-.3.4-.6 1.1-.5 1.4-.5.7.1-.5.4-.5.5-.2.5s.7-.2 1-.4c.5-.4.5-.5-.2-.8-.5-.2-.8-.2-.8 0l-.6.2c-.5 0-.6-.2-.7-1.8 0-1.1.2-2 .4-2 .3-.3.3-.3 0-.3s-.4-2.6-.4-11c0-11.3.1-12.2 1.3-11.8.5 0 .6 0 .4-.4-.2-.6-.7-.5-1.3.1-.3.4-.4-.3-.4-3.4 0-2.3.2-4 .4-4v-.6c-.5-.8-.5-2.5 0-2.5.2 0 .3-1 .2-3.2-.1-3-.1-3.2-.8-3-.3 0-.7.3-.8.5-.2.3-.3.3-.3 0s.3-.5.5-.6c.3-.2.5-.5.4-.9-.2-.6-.2-.6.5 0 .6.6.6.6.5 0-.1-.6-.4-.7-1.6-.7-.9 0-1.6 0-1.6.2s-.3.2-.6 0c-.8-.4-3.3-.1-3 .3 0 .2-.1.3-.5.3s-.6-.1-.5-.3c.2-.3-.1-.3-1-.2-2.3.4-6.8.6-6.8.2 0-.2 0-.3.2-.2.2 0 .5 0 .7-.2.4-.2 0-.2-1.3 0-1 0-1.8.3-1.8.4 0 .2-.3.3-.6.3s-.4-.1-.3-.3c.2-.2 0-.2-.6 0-.4.2-2.4.2-4.4.1-2-.1-3.9-.2-4.3-.1-1.5.1-11.7.5-14.2.4-3.6 0-10.6-.4-11.3-.6-.4-.1-.7 0-.9.2-.2.4-.3.4-.3 0 0-.1-.1-.3-.3-.3-.2 0-.3.1-.1.3.1.3 0 .3-.5 0-.3-.2-.8-.3-1-.3-.3 0-.2.2.2.3.5.2.5.3-.3.3-.4 0-1-.1-1-.3-.1-.2-.7-.3-1.2-.3h-1l1 .3c.7.2.5.3-1 .3-1 0-1.8-.1-1.8-.3 0-.2-.8-.3-1.8-.3s-1.7.1-1.7.3c0 .4-1 .3-1.4-.1 0-.2-1.2-.3-2.5-.4-1.4 0-2.1 0-1.9.2.4.2.4.3 0 .3s-.7-.2-.8-.4c-.2-.2-.3-.2-.5.2-.2.3-.8.4-2.8.4-3.7-.2-4.4-.3-4.3-.8 0-.4 0-.4-.3 0s-.9.6-1.7.6c-.7 0-2 .1-2.7.3-.8.2-2.3.4-3.4.3-1 0-3 0-4.5.2-1.8.2-3 0-4.5-.3a9.8 9.8 0 00-2.8-.3l-9 .3c-4.7 0-10.6.2-13.2.3-4.4.2-4.8.2-6-.4-.8-.4-1.5-.6-1.6-.4 0 .1-3.7.3-8.2.3a494.4 494.4 0 00-23.6.5 17436.7 17436.7 0 01-13.8 0 68.8 68.8 0 01-13-.8c.2.2.1.3 0 .3-.3 0-.4-.1-.4-.3 0-.2-.9-.3-2-.3-1 0-1.8.1-1.7.3 0 0-.2.2-.6.2-.4 0-.7-.2-.6-.3.1-.2-1-.2-2.5 0-2.9.2-8.6.2-9 0 0-.2-.3 0-.4.2 0 .3-.2.2-.5-.1-.2-.4-.9-.6-3-.6-1.6 0-3.2 0-3.7-.2-.5-.1-1.8 0-3 .5a11 11 0 01-7.3-.1c-2.4-1-3.3-1.1-8.3-.9l-7.3.7a501.2 501.2 0 00-43.4.6c-.3.2-.5.3-.5.1 0-.2-1-.4-2.9-.4-1.6 0-2.8.1-2.8.3 0 .2-.6.3-1.4.3-1.2 0-1.3 0-.4-.3l1-.2-1.3-.2c-.6 0-1.3 0-1.4.2 0 .2 0 .2.2 0l.4.1c0 .2-.4.3-1 .3-1 0-1.3-.5-.4-.5.4 0 .4-.1.2-.2-.3-.1-.7 0-1 .3-.5.4-2.5.5-16.4.5a168.5 168.5 0 01-16.8-.3c-.5.8-5 .2-5.7-.8-.1-.2-.2 0-.1.3 0 .6-.1.7-3.8.8a15 15 0 01-5.2-.4c.2.2-1.3.3-3.3.3-2.4 0-3.4 0-3.3-.2.2-.3 0-.3-.4 0-.4.2-1.4.3-2.2.3-1.2 0-1.4 0-1.3-.5.1-.3 0-.4-.5-.4-.4 0-.6 0-.3.2 1.5.6-1.8.7-18.2.7a124.8 124.8 0 01-18.8-.3c-.3.3-.4.4-.4 0 0-.1-.3-.3-.7-.3-.6 0-.6 0-.3.3a7065.5 7065.5 0 00-5.4-.1c-1.3-.1-2 0-2 .2s0 .2-.3 0c-.5-.5-1-.5-.7-.1 0 .2 0 .3-.3.3s-.6-.1-.7-.3c-.1-.2-.7-.3-1.3-.3-.8 0-1 0-.9.4.2.2 0 .2-.3 0-.5-.5-.6-.5-.9 0-.2.2-.3.3-.3 0 0-.2-.1-.4-.3-.4-.2 0-.3 0-.2.2 0 .2-.4.3-1 .3-1.3.1-1.7-.2-1.9-1.1 0-.3.2-.2.7.2.7.7 1.4 1 1.4.4 0-.4-1.2-1.1-1.2-.7 0 0-.2 0-.3-.2-.5-.7-2.2-1.3-4-1.3-1.7 0-1.9 0-1.7.6.2.9 0 .8-.4-.2-.4-.9-1-1-1-.3 0 .3.1.4.3.3.2 0 .3 0 .3.3s-.2.4-.6.3c-.5-.1-.6-.4-.5-.8 0-.3 0-.7-.2-.8-.2-.1-.3.2-.2.8l-.1 1c-.4 0-.2.8.4 1 .2.1.6 0 .8 0 .5-.4 1.2-.1 1 .3-.3.3.2.4 1 .4.1 0 .5.1.7.4.2.3.5.5.7.5.1 0 0-.3-.5-.7-.8-.9-1.1-2-.4-1.8.3.1.4 0 .3-.5-.2-.5-.1-.6.2-.4.1.2.4.7.4 1.1 0 .5.3.9.5 1 .2 0 .3-.2.2-.6-.1-.8 0-.8 1-.3.6.4.6.4 0 .6-.6.2-.5.3.2.3.5 0 1 .1 1 .3.2.3-.3.5-1.3.4-.2 0-.3.2-.2.4.2.2 0 .2-.3 0-.3 0-.5 0-.4.2.1.1-.1.8-.5 1.5s-.7 1.6-.7 2.1c.1.8 0 1-.2.5-.2-.2-.3-.3-.3 0 0 .1-.3.3-.5.3-.3 0-.4-.2-.3-.6 0-.3-.1-.6-.7-.9-.6-.3-.8-.3-.8 0s0 .8-.2 1.2c-.1.5 0 .7.4.7.5 0 .5 0 .1-.6-.4-.5-.4-.5.1-.1.3.2.5.6.4.7-.1.2.3.3 1 .2.8-.2 1.1-.1 1 .2 0 .2-.4.3-.7.3h-1c-.4.2-.4.3-.1.7.5.6.2 1-.7 1-1 0-1 .6 0 .7.7 0 1-.2 1-.4 0-.3.2-.5.5-.5.2 0 .5.2.5.5s-.2.4-.4.3c-.2-.2-.3-.1-.1.2.1.2.4.3.6.2.2-.1.4.2.5 1 0 .7-.1 1-.4 1-.3 0-.4.2-.4.5 0 .2.1.4.4.3.3-.2.4.9.4 4.6 0 3.2-.1 4.9-.4 4.9-.2 0-.2.2-.1.4l-.1 1.4c-.2.5-.4 1.7-.4 2.7-.2 1.7-.1 1.9.5 1.9s.5 0-.2.4c-1 .3-1.2.8-.5.8.3 0 .5.2.5.5 0 .2-.2.4-.5.3-.3-.1-.4.4-.4 2a197.7 197.7 0 010 8.3c.2.1.3 0 .3-.2 0-.3 0-.5.3-.5s.6-.2.7-.4c.2-.3.3 1.2.3 3.4 0 3.5 0 4-.6 4-.4 0-.4 0 0 .2.2.2.3.5.1 1 0 .4 0 .6.2.6s.3.6.3 1.4v1.4l-.6-1.3c-.9-1.7-1.1-1.8-.9-.4.1.6.5 1.4.8 1.8.6.5.7 1 .7 2.8 0 1.3-.1 2-.3 1.9-.2-.1-.3 0-.3.3s.1.4.3.3c.2-.1.3.6.2 2 0 1.3-.1 2.2-.3 2.1-.1 0-.2 0-.2.4 0 .2-.2.5-.4.5s-.3 0-.2.2c.1 0 .4 0 .7-.2.5-.4.5.3.5 6.7 0 4-.2 6.8-.3 6.4-.1-.5-.4-.8-.6-.7-.2 0-.4-.1-.4-.3 0-.2.2-.3.3-.3.2 0 .4-.1.4-.3 0-.1-.2-.2-.5-.2-.4 0-.5 1.9-.1 2.3v1.1c0 .6 0 .9.2.8.2-.1.4 0 .4.3s.1.5.3.5c.2 0 .3.1.3.3 0 .2-.2.3-.4.2-.2 0-.4.2-.5.4 0 .3 0 .4.2.3.1-.1.2.3.1.9 0 .7 0 1 .3 1 .1 0 .3.3.3.6 0 .5 0 .5-.3.1-.3-.3-.3-.2-.3.6 0 .5 0 1 .2 1.1.5.3.2 6.1-.4 7.6a6 6 0 00-.4 2.7c.1.8.1 1.1 0 .8-.3-.3-.4 0-.4.9 0 1 .1 1.4.5 1.4.3 0 .4.2.3.5-.2.5-.1.5.3 0 .5-.6.5-.6.5.7 0 .8-.1 1.6-.3 2-.2.4-.2.6 0 .6.1 0 .3 2.1.3 5v5.1h-2.3c0 .2.4.6.6 1 .2.3.7.6 1 .6.6 0 .7.1.7 1 0 .8 0 .8-.4.3-.6-.6-.9-.4-.8.7 0 .5 0 .7.1.5.1-.3.4-.4.6-.4.4 0 .5.8.5 3.8 0 2.2-.2 3.8-.3 3.8-.2 0-.2.4 0 .8.2.5.3 1.2.1 1.7l-.2 1.1c-.1.6-.6.6-.7.2-.2-.4 0-.7.3-1 .4-.3.5-.6.4-1.3-.2-.5-.4-.8-.6-.7-.1.2-.3 0-.3-.1 0-.2-.1-.3-.3-.2-.3.2-.2.4.1.6.7.3.7.9 0 .9-.5 0-.5 0 0 .3.2.2.2.3 0 .3-.1 0-.3.5-.2 1.1 0 .7 0 1.1-.3 1.1-.2 0-.3.1-.2.2.1.1.7 0 1.3-.3.8-.5 1-.5.7-.1-.3.2-.3.6-.2.7.1.2 0 .2-.3 0-.5 0-.5 0-.2.7.4.7.4.8.6.2.1-.3.2.4.3 1.6 0 1.3-.1 2.1-.3 2-.2-.1-.3 0-.3.1 0 .2 0 .4.2.5.5.3.8 3.1.4 3.4-.2.1-.3.5-.2.8 0 .5.2.5.5-.3.4-.9.4-1 .7-.3.1.3.7.8 1.4 1l1 .7h13.1l.4.8c.2.5.5.8.6.7.1-.1 0-.4-.2-.6l-.3-.6c0-.2 3.2-.3 7-.3 5.8 0 7 .1 6.6.4-.4.4-.4.5.2 1 .6.4.8.4.8 0 0-.2-.1-.4-.3-.4-.1 0-.2-.2 0-.5.2-.6 4.7-.7 5.4 0 .4.2.5.2.3 0-.2-.4.3-.4 1.8-.4h2l-.2 1.2c-.3.8-.2 1.1 0 1.2.2 0 .3.3.2.5-.2.2-.1.2.2 0a3 3 0 011.3-.2zm16.6-2.3c0-.3.3-.5.7-.5.4 0 .6 0 .5.1l-.7.5c-.4.4-.5.4-.5 0zm220.5.2c0-.2.1-.4.3-.4.2 0 .3.2.3.4 0 .1-.1.3-.3.3a.3.3 0 01-.3-.3zm-32.8-.4c-.1-.1 0-.3.3-.3.2 0 .5.2.5.3 0 .2-.2.4-.3.4-.2 0-.4-.2-.5-.4zm125.6 0c0-.1.1-.3.3-.3.2 0 .3.2.1.3 0 .2-.2.4-.3.4l-.1-.4zm17.7 0l.5-.3c.2 0 .3.2.3.3 0 .2-.2.4-.5.4-.2 0-.4-.2-.3-.4zM46 130.6h.6c.1.1 0 .2-.4.2s-.4-.1-.2-.2zm.5-1c.2-.4-1.2-.4-11.7-.4H23l.2-2 .2-2.6c0-.6.3-.8 2.1-1.3 1.2-.3 2.6-.9 3.2-1.3 1.2-1 5.6-7.4 5.4-8-.1-.2 0-1.1.4-2 .5-1.2.6-1.7.3-1.7s-.2-.1 0-.4c.8-.6 1.4-1.8 1.2-2.2-.2-.2-.3-.2-.5 0 0 .2-.2 0-.2-.6s.1-.8.3-.6c.1.3.2.3.2.1 0-.2.2-.1.3.1a34.4 34.4 0 003.3-8c0-.2.4-1.3 1-2.3l1-2.6c0-.3.5-1.5 1-2.5.4-1 .8-2.3.8-2.8 0-.4.2-1 .5-1.4.3-.3.5-.8.5-1 0-.1-.2 0-.3.2-.2.3-.3.2-.3-.4 0-.4.2-.8.3-.7.1.1.4-.1.6-.5.5-1 2.2-6.4 2-6.4-.1 0 0-.2.3-.4.6-.4.8-1.8.5-2.4-.2-.3-.1-.3.2-.2h.5c-.4-2 .6.5 1.6 3.9.2.7.5 1.3.8 1.3.7 0 .9 1.1.5 2.5l-.3 1.8c0 .6 0 .5 1-.3.8-.8.8-.6-.5 1.3l-1.5 2.6c0 .3-.1.5-.3.5-.2 0-1.3 1.7-1.3 2 0 .2.2.2.5.2.4 0 .4.2.3.7-.2.4-.3 1.1-.3 1.5v.4c-.3-.6-.8 0-.8.8 0 .4-.2 1.3-.5 1.9-.7 1.8-.4 2 2.2 2h9.4l.6 2c.3 1.1 1 2.5 1.5 3.1 1.7 2.1 1.2 2.6-2.9 2.7-1.8.1-3.2 0-3-.1.1-.3-3-.4-3.3 0l-4 .1c-2.3 0-3.9 0-3.9.3 0 .1-.2.3-.4.3-.5 0-.5 0-2 4a51 51 0 01-1.6 4c-.6 1.3-.8 5.3-.3 6.2l.3 1c0 .2.2.3.4.2.3 0 .3.1.3.4-.3.6 2.6 3 4 3.4a5 5 0 002 .1c.9-.2 1.2.3.5.7-.1 0-.3.6-.3 1.1 0 .5.2 1 .3 1.1.5.3.4.7-.1 1-.4 0-.5 0-.4-.3zm-18.3-4.5a2 2 0 00-.3-.7c-.4-.6-.8-.2-.6.4.2.5.9.7.9.3zm8-8.2c0-.3-.2-.4-.5-.3-.3 0-.5.3-.5.5 0 .1.2.2.5.2.2 0 .5-.2.5-.4zm3.2-10.2l-.5-.2c-.3 0-.5.3-.5.6 0 .6 0 .7.5.3.2-.2.5-.5.5-.7zm3.4-8.3c-.2-.6-.9-.7-.9-.1 0 .3.3.5.5.5.3 0 .5-.2.4-.4zm2.9-.8c0-.2 0-.7-.4-1-.5-.5-.5-.4-.5.5 0 1 .5 1.4.9.5zm-4.4-.4c0-.7-.5-.9-.8-.3-.2.3 0 1 .5 1 .2 0 .3-.4.3-.7zm27.3 32.7c.2-.3-.9-.4-3.6-.4H61v-1.8c0-2 .9-3.6 1.9-3.6.4 0 .4 0 0 .5-.8.9-.7 1.2 0 .6.6-.3 1-.4 1.6-.2.6.3.9.2 1.7-.6.5-.6 1-1 1.2-.8.2 0 .5-.1.7-.5.2-.4.5-.6.6-.5.2.2.6 0 .8-.3.6-.8.3-3.8-.4-4.9a3 3 0 01-.4-1.2c0-.3-.1-.4-.3-.3-.2.1-.3.6-.3 1v.6c-.5-.3-.4-1 0-1.7.3-.5.3-.8 0-1.4l-1-2.8c-.4-1.2-1-2.3-1.2-2.6-.2-.3-.4-.7-.3-.9.1-.1 0-.7-.3-1.2a46.7 46.7 0 01-3.3-9.7 27.4 27.4 0 00-2-6.2c0-.1-.1-.2-.5-.2-.7 0-1-.5-.4-.8.2-.1.2-.6.1-1-.3-1.7-1.1-4.1-1.4-4.5-.2-.2-.3 0-.1.3.1.3 0 .5-.1.5-.4 0-.4-.5 0-1.1v-1C57 82.1 56 79.5 56 79c0-.2-.3-.7-.7-1-.3-.4-.5-.8-.4-1v-.8c-.3-.5-.3-.5-.7 0-.3.5-.4.4-.8-.6-.3-1-.3-1.3.3-1.8.5-.7.5-.7-.2-.3-.8.4-.9.3-2-3.2-.6-2.2-.6-2.6-.3-3.4.3-.6.9-1 1.5-1.2 1.3-.3 1.4-.8.2-.8-1 0-1 0 .1-3.5.4-1.1.8-2 1-2 .4 0 1.4-2.3 1.2-2.8 0-.2 0-.4.2-.4l.5-.7c0-.4.4-.9.6-1.1.3-.3.4-.6.2-.8-.1-.1-.2-.9-.1-1.7.1-1.3.3-1.6 1-2 .7-.4 1.2-1.2 1.8-3 .8-1.9 1.1-2.4 1.7-2.5.4 0 .6-.2.5-.4-.1-.1 0-.3.1-.3.2 0 .3.3.3.6 0 .7.6 2.6 1.2 3.9.3.4.5 1 .5 1.2 0 .3.2.4.4.4.5-.2.6.1.3.8 0 .3.2 1.5.7 2.7l1.5 4.2c.3 1 .8 2.2 1 2.4.3.3.9 1.7 1.4 3.2.5 1.5 1 2.7 1.2 2.6.2 0 .3.2.3.5 0 .4 0 .8.2 1l.3.7c-.1.7 0 1 .6 1.3.4.1.4 0 .3-.7-.2-.5-.1-.7 0-.6.3.1.4.7.4 1.3 0 .7-.1 1-.3 1-.4-.3-.4-.2.5 1.8.4 1 .9 2.5 1 3.4.2 1.5.7 2.3.7 1.1 0-.4.1-.4.5-.1.7.5.6.8-.1 1.1-.6.3-.6.4.1 1.9.5.8.8 1.6.8 1.7-.1.9 0 1 .8.7 1-.4 1.1-.4 1.1 0 0 .2-.3.5-.8.8-.7.4-.8.4-.3 1 .3.2.5.7.5 1 0 .4.2.7.4.7.3 0 .4.4.3 1 0 .7 0 1 .2.9.2-.2.4 0 .5.2.1.3 0 .5-.1.3-.2 0-.2 0-.1.3 0 .3.3.5.4.4.1 0 .4.2.7.6.2.5.6.8.8.8.5 0 .6.5.1.8-.3.2.3 2.3.9 2.8.2.2.3.5.2.8-.1.2 0 .4.1.4.2 0 .6.5 1 1 .2.5.7 1 1 1 .1 0 .3.2.3.5s0 .4-.2.2c-.1-.3-.3-.3-.6 0-.5.5-.5.6 0 1.1.6.7.6 1 0 1.6-.6.4-.5.4.5.2.9-.1 1 0 .6.3-.3.4-.3.5.2.5.6 0 .6.2.2 1-.3.4-.3.8 0 1.3.2.4.4.9.3 1 0 .2.2.2.5.1.4-.1.5 0 .4.5 0 1.3 0 1.6.5 1.4.4-.1.5 0 .2.4-.2.5-.2.8.1 1.3.3.3.4 1 .3 1.5-.1 1 0 1 1.2.3.8-.4.9-.4 1 0 .2.3 0 .6-.3.7-1.2.4-1.3.7-.8 1.7l.4 1.2c0 .2.1.4.3.4.2 0 .2.4 0 1-.3 1 .2 1.7.5.8.2-.3.6-.5 1-.5.8 0 .9 0 .3.3l-.4.3c.2 0 .1.3 0 .5-.4.4-.4.5 0 .7.3.1.5.4.5.7l.5.9c.3.3.4.7.3 1-.2.4-.1.4.5 0 .8-.3 1.4 0 .7.4-.3.2-.4.3-.1.3.2 0 .3.3.2.6-.2.8.8 1.5 2.8 2l1.5.4V129.5h-1.8l-2.3.1c-.4.3-1.7 0-1.5-.4l.6-.2c.7 0 .6-1 0-1.4-.8-.4-2 0-1.8.5.1.2.4.4.7.5.5 0 .4 0 0 .4-.4.3-1.3.5-2 .5a105 105 0 00-14.9.3c.4.3.4.4-.2.2-1.7-.4-3.6-.5-4.3-.2-.5.3-.6.3-.5 0zm14.6-1c-.2-.2-.6-.2-.8-.1-.7.2-.5.4.4.4.6 0 .8-.1.4-.3zm4.6 0c.5-.2.8-.5.7-.7-.1-.2-.5-.1-1 .2-.3.3-.7.4-.8.3-.1-.1-.3 0-.4.1-.3.5.4.5 1.5 0zm5.2-1.6c0-.2 0-.4-.2-.4l-.5.4.1.3.6-.3zM74.2 119s-.2-.2-.6-.2c-.4 0-.6.3-.6.5 0 .4 0 .5.6.2.4-.2.6-.4.6-.5zm15.7.2c0-.7-.8-1.3-1.1-1-.2.2.8 1.6 1 1.6l.1-.6zm-4.1-1.5c0-.3-.2-.4-.5-.2-.4.1-.5.2-.1.4.5.4.6.4.6-.2zm-10-.5c-.2-.3-.2-.2-.2.2 0 .3 0 .5.1.4v-.6zm5.2 0c0-.1-.2-.3-.4-.3l-.3.3c0 .2.2.4.3.4.2 0 .4-.2.4-.4zm-1.8-1l-.1-.2c-.2 0-.4.1-.4.3 0 .2 0 .3.2.3l.3-.3zm5.1-3.3c.7-.5.5-.5-.9.2-.4.2-.8.5-.8.7 0 .3.8 0 1.7-.9zm-11.3-.3c0-.3.1-.5.3-.5.2 0 .3 0 .2-.2-.3-.3-1.5.5-1.3.9.3.4.8.3.8-.2zm-1.8-.5c.4-.2.5-.3.2-.3a2 2 0 00-1 .3c-.6.4 0 .4.8 0zm-1.2-1.5h-.6c-.3.1-.2.2.2.2.3 0 .5 0 .4-.2zm12.7-1c-.5-.5-.5-.5-.1.2.2.4.4.7.5.6.1-.1 0-.5-.4-.8zm-.3-13.3c-.1-.3-.3-.5-.5-.5 0 0-.2.2-.2.5 0 .2.2.5.4.5.3 0 .4-.2.3-.5zm-22-10.7c0-.2 0-.4-.2-.4s-.4.2-.4.4c0 .1.2.3.4.3l.3-.3zm2-1c0-.3-.1-.7-.3-.8-.2-.1-.3 0-.3.2l-.3 1.2c-.1.8-.1.8.4.4.3-.2.5-.7.5-1zm-6.7-17.4c0-.3-.2-.5-.3-.5-.2 0-.4.2-.4.5 0 .2.2.4.4.4.1 0 .3-.2.3-.4zm-.3-2.1c0-.2-.2-.3-.3-.3-.2 0-.4.1-.5.3-.1.2 0 .3.3.3.2 0 .5-.1.5-.3zm12.1-2.9c.3-.2.4-.3.2-.3a2 2 0 00-.8.3c-.3.2-.4.3-.2.3s.6-.1.8-.3zm-8.3-2.4c0-.3-.1-.4-.3-.3-.2 0-.3.4-.3.7 0 .2.1.4.3.2.2 0 .3-.4.3-.6zm-.6-.8c0-.2-.3-.2-.5-.1-.3 0-.5.2-.5.3l.5.1c.2 0 .5-.1.5-.3zm47.7 70c-.2-.5-.6-.9-1-.9-.6 0-.7-.2-.7-2.8v-2.9h3c3-.2 4-.5 3.1-1-.5-.3-.2-.5 1.1-.7.8-.1 1.1-.9.4-.9-.8 0-.7-1.3 0-2.8l.8-1.4-.8.2c-.4.1-.9 0-1-.1-.1-.2.1-.4.6-.4.6 0 .7-.1.7-1s-.1-1-.7-1c-.3 0-.5 0-.2-.1.4-.4.7-2 .3-2-.2 0-.1-.3.1-.5.3-.4.3-.5-.1-.3-.6.2-.7-.5-.1-1.1.3-.3.3-.5-.1-.7-.4-.2-.4-.4 0-1.2.2-.6.3-.9 0-1-.6-.2-.4-.7.3-.7 1 0 .7-.5-.4-.8-1-.2-1-.3.8-1 .6-.1.6-.1 0-.7-.4-.5-.4-.7 0-.7.3 0 .3 0 0-.3-.4-.2-.4-.3-.2-.3.3 0 .4-.5.4-1.5s0-1.4-.4-1.4a.5.5 0 01-.5-.5c0-.2.2-.5.5-.5s.4-.1.2-.4l-.2-1c0-.4-.3-.7-.8-.8l-.8-.3h.8c1.4 0 1.5-.6 1.5-4.5 0-2.7-.2-3.6-.5-3.8-.4-.2-.4-.3 0-.5.6-.2.8-1.5.3-1.5-.2 0-.2-.2 0-.8.2-.7.2-.8-.4-1-.7-.2-.8-.7-.1-.7.3 0 .4-.3.4-1s.2-1.8.5-2.6c.4-1.3.4-1.4-.1-1.4-.3 0-.6.2-.7.3-.5.7-.7-.2-.2-.9.5-.7.5-2 .6-9.4a385.5 385.5 0 00-.1-11.4c0-.9-.2-1.7-.4-1.8-.1-.1 0-.6.3-1.2.5-.9.5-1-.2-2.5l-.8-1.6-3.5-.1c-2-.1-3.5-.3-3.5-.4l.3-2.3c.2-1.6.4-2.2.8-2.4.9-.5 4-.4 4.4 0 .4.4.5.3.7 0 .3-.4.4-.4 1.1 0 .8.4 1 .4 1.2 0 .2-.4.6-.4 2.6-.1 1.4.2 4.9.3 8.9.2l12-.2 5.6-.1v2.4l-.2 2.4H135l-.9 1c-.6.8-1 1-1.9 1-1 0-1.4.6-.3.8.6 0 .6.1-.3 1.3-.7 1-.8 1.3-.5 1.8.3.5.4 2.4.4 6.2v5.6l-1.6-.1c-1.4 0-1.6 0-1.6.5 0 .6.7.8 2.5.7h.8l-.1 8.5a41 41 0 01-.5 9c-.5.7-.3 16 .2 17 .3.5.3 2.5.2 7-.2 4.5-.1 6.4.1 6.6.2 0 .4 0 .4-.2 0-.3.2 0 .4.5.3.7.5 2.6.5 6.6v5.7H106.9v.9l-.2.9-.4-.9zm13.6-11.2c-.1-.2-.2-.2-.2.2s0 .5.2.4v-.6zm5.5-.2c0-.4-.1-.7-.3-.7-.2 0-.3.3-.3.7 0 .3.1.6.3.6.2 0 .3-.3.3-.6zm-2.4-2c.2-.7 0-.7-.8-.3-.3.2-.6.7-.6 1.2 0 .8 0 .8.6.3.3-.3.7-.8.8-1.2zm5.3.5c0-.2-.1-.5-.3-.5-.2 0-.3.3-.3.5 0 .3.1.5.3.5.2 0 .3-.2.3-.5zm-1-.5c-.1-.3-.2-.2-.2.2 0 .3 0 .5.1.4.1-.1.2-.4 0-.6zm-7.6-1l-.4-.2c-.1 0-.2.1 0 .3 0 .2.2.3.2.3.1 0 .2-.1.2-.3zm4.5-.7c0-.3-.2-.5-.3-.5-.4 0-.7.5-.5.8.4.3.8.2.8-.3zm-1.5-2.3c-.1-.4-.3-.4-.5-.2s-.2.5.1 1c.3.6.4.6.5.2v-1zm-6-.2c-.1-.2-.2-.2-.2.2s0 .5.2.4v-.6zm9.3-.3c-.1-.2-.2 0-.2.4s0 .6.2.4v-.8zm-11.5.3c-.2-.6-1.5-.7-1.5-.1 0 .3.3.5.8.5s.8-.1.7-.4zm6.1-1.7c0-.4 0-.5-.4-.1l-.5.5.5.1c.2 0 .4-.2.4-.5zm-3.6-4.2l-.1.5c0 .7 0 1 .1.6v-1.1zm1.2-1.7c.1-.1 0-.4-.1-.5-.2 0-.3 0-.3.3 0 .6.2.7.4.2zm12-3.9c0-.6-.9-2.1-1.4-2.3-.5-.2-.5 0-.4.8l.6 1.5c.4.5 1.2.5 1.2 0zm-2.2-8.6c0-.2-.1-.3-.3-.3-.2 0-.3.2-.3.5s.1.4.3.3c.2-.1.3-.3.3-.5zm1.8-1.6c0-.3-.2-.2-.2.2 0 .3 0 .5.2.4v-.6zm-2.4-4.4c0-.4-.7-.8-.9-.6-.2.2.2.9.6.9l.3-.3zm.8-1.4c0-.3-.2-.2-.2.2 0 .3 0 .5.2.4V84zm-1.8-11.8c0-.3-.1-.6-.3-.6-.2 0-.3.3-.3.6 0 .4.1.7.3.7.2 0 .3-.3.3-.7zm.6-2.7h-.7c-.2 0-.1.1.2.1.4 0 .6 0 .5-.1zm.6-3c-.4-.3-.6.2-.4.6.2.4.3.4.4 0v-.6zm-10.4-2.3c0-.3-.2-.6-.3-.6v.6c0 .4 0 .7.2.7s.2-.3.1-.7zm13.5.1c.7-.2.6-.7-.1-.7-.4 0-.7.2-.7.5 0 .5 0 .5.8.2zm-4-4.1c0-.7-.8-2.4-1.1-2.4-.5 0-.2 2 .3 2.3.4.3.8.3.8 0zm-10.3-3.4c0-.4-.2-.2-.2.5s.1 1 .2.8v-1.3zM123 52a.4.4 0 00-.5 0c-.1 0-.2.2 0 .4 0 .2.2.2.4.1.2 0 .2-.3.1-.5zm57.3 77.1c-.3-.5-.7-.9-1-.9-.7 0-.7-.2-.7-2.8v-2.9h3c3-.2 4-.5 3-1-.5-.3-.2-.5 1.1-.7.8-.1 1.1-.9.4-.9-.7 0-.7-1.3.1-2.8l.8-1.4-.8.2c-.5.1-1 0-1-.1-.2-.2 0-.4.5-.4.6 0 .7-.1.7-1s-.1-1-.6-1c-.4 0-.5 0-.3-.1.4-.4.7-2 .3-2l.1-.5c.4-.4.4-.5 0-.3-.7.2-.8-.5-.2-1.1.3-.3.3-.5 0-.7-.5-.2-.5-.4-.1-1.2.3-.6.3-.9 0-1-.6-.2-.3-.7.3-.7 1 0 .8-.5-.4-.8-1-.2-1-.3.9-1 .6-.1.6-.1 0-.7-.4-.5-.5-.7-.1-.7.3 0 .3 0 0-.3-.4-.2-.4-.3-.1-.3.2 0 .4-.5.4-1.5s-.2-1.4-.5-1.4a.5.5 0 01-.5-.5c0-.2.2-.5.5-.5s.4-.1.3-.4c-.2-.2-.3-.6-.2-1 0-.3-.2-.6-.7-.8-.7-.3-.7-.3 0-.3 1.2 0 1.4-.7 1.3-4.5 0-2.7-.1-3.6-.5-3.8-.4-.2-.4-.3 0-.5.6-.2.8-1.5.3-1.5-.2 0-.2-.2 0-.8.2-.7.2-.8-.4-1-.7-.2-.8-.7-.1-.7.3 0 .5-.3.5-1s.2-1.8.4-2.6c.4-1.3.4-1.4 0-1.4s-.7.2-.8.3c-.5.7-.6-.2-.2-.9.5-.7.6-2 .6-9.4a385.5 385.5 0 00-.1-11.4c0-.9-.2-1.7-.4-1.8-.1-.1 0-.6.3-1.2.5-.9.5-1-.2-2.5l-.8-1.6-3.5-.1c-2-.1-3.5-.3-3.4-.4l.2-2.3c.2-1.6.4-2.2.8-2.4.9-.5 4-.4 4.5 0 .3.4.4.3.6 0 .3-.4.4-.4 1.2 0 .7.4.8.4 1 0 .3-.4.8-.4 2.7-.1 1.4.2 4.9.3 9 .2l12-.2 5.5-.1v2.4l-.2 2.4H209l-.9 1c-.6.8-1 1-1.8 1-1.2 0-1.5.6-.4.8.6 0 .6.1-.3 1.3-.7 1-.8 1.3-.4 1.8.2.5.3 2.4.3 6.2v5.6l-1.6-.1c-1.3 0-1.6 0-1.6.5 0 .6.7.8 2.6.7h.7l-.1 8.6a37 37 0 01-.5 9c-.5.5-.5 3.6 0 9.2.1 2.7.1 4.3-.1 5.3-.3 1.1-.3 1.5.2 2.2.5.8.5 1.5.3 7.2-.2 4.4-.1 6.4.1 6.6.2 0 .4 0 .4-.2 0-.3.2 0 .5.5.3.7.4 2.6.4 6.6v5.7H181l-.1.9-.2.9-.3-.9zm8.1-17.6c-.2-.6-1.5-.7-1.5-.1 0 .3.3.5.8.5s.8-.1.7-.4zm2.5-6l-.1.6c0 .7 0 1 .1.6v-1.1zm1-2c-.1-.2-.2-.2-.2.2s0 .5.2.4v-.6zm10-12.1c0-.2-.1-.3-.3-.3-.2 0-.3.2-.3.5s.1.4.3.3c.2-.1.3-.3.3-.5zm1.8-1.6c0-.3-.1-.2-.1.2 0 .3 0 .5.1.4v-.6zm-2.4-4.4c0-.4-.6-.8-.9-.6-.2.2.2.9.6.9.2 0 .3-.2.3-.3zm.8-1.4c0-.3-.1-.2-.1.2 0 .3 0 .5.1.4V84zm-1.8-11.8c0-.3-.1-.6-.3-.6-.2 0-.3.3-.3.6 0 .4.1.7.3.7.2 0 .3-.3.3-.7zm.6-2.7h-.6c-.3 0-.2.1.2.1.3 0 .5 0 .4-.1zm.6-3c-.3-.3-.6.2-.3.6.2.4.2.4.3 0v-.6zm-10-2.3c0-.2-.2-.5-.4-.5-.2-.1-.4.1-.4.5s.2.7.4.6c.2 0 .4-.3.4-.6zm13.1.1c.7-.2.6-.7-.1-.7-.4 0-.7.2-.7.5 0 .5.1.5.8.2zm-4-4.3a2 2 0 00-.3-.9c-.2-.4-.3-.3-.3.4 0 .5.1.9.3.9.2 0 .3-.2.3-.4zm-10.3-3.2c0-.4-.1-.2-.1.5s0 1 .1.8v-1.3zM192 58c0-.1-.1-.3-.3-.3-.2 0-.3.2-.2.3l.4.4.1-.4zm208.8 70.4c-1.6-.7-3.5-2.5-4.2-4a22 22 0 01-.8-7.5c0-3.3 0-3.4.6-4 .8-.8 1.4-1.9 1.4-2.6 0-.9 1.8-2.5 3.6-3.1 1.8-.7 4.3-.6 6.2.4 2 1 4 3.5 5 5.9a8 8 0 01.8 4.7 11 11 0 01-1.7 5.7c-1.5 2.9-1.7 3.2-3.3 4a9.6 9.6 0 01-7.6.5zm-258.6-.2c-7.2-.1-6.6.4-6.4-4.7v-3.2l.8.1c1.9.4 10.7-.2 13.2-.8 2.9-.7 5.4-2.1 7.2-4 2.3-2.6 4.8-7.7 6.7-14l1.6-5.1h2.5c2.8 0 2.7-.4 2.1 4.1-.7 5.7-1 8.3-1.3 12.3a401 401 0 01-1.3 15c-.2.2-18.7.4-25.1.3zm-1.3-7.3c-.2-.1-.6-.1-.8 0l.4.1c.4 0 .6 0 .4-.1zm20-6.7c0-.5-.8-1-1-.7-.2 0-.1.4 0 .7.2.6 1 .6 1 0zm5.8-4c0-.6-.5-1.2-.8-.9-.3.3.2 1.5.5 1.5.2 0 .3-.2.3-.6zm49.4 18c-7.2-.1-6.6.4-6.4-4.7v-3.2l.9.1c1.8.4 10.6-.2 13.2-.8 2.8-.7 5.4-2.1 7.2-4 2.3-2.6 4.7-7.7 6.6-14l1.6-5.1h2.5c2.9 0 2.7-.4 2.1 4.1-.6 5.7-1 8.3-1.2 12.3a401 401 0 01-1.4 15c-.1.2-18.7.4-25.1.3zm-1.3-7.3c-.2-.1-.6-.1-.8 0l.4.1c.4 0 .6 0 .4-.1zm20-6.7c0-.5-.8-1-1-.7v.7c.2.6 1 .6 1 0zm5.8-4c0-.6-.5-1.2-.8-.9-.3.3.2 1.5.5 1.5.2 0 .3-.2.3-.6zM15.4 127.6c0-.2.1-.3.3-.2.2.1.3.3.3.4l-.3.1c-.2 0-.3-.1-.3-.3zm322.7 0s-.2-7.3-.2-16v-16h1.8c1 0 1.7-.2 1.8-.4.2-.5.3-.4 1.4 3.9 1.4 5.7 3 8.7 7.7 15.2 1.9 2.6 5.6 5.1 8.8 6l1.4.3v3.1a15 15 0 01-.2 3.4c-.4.4-5.2-1-7.7-2.2-4-1.9-4.8-2.1-6.1-2.3-1.2-.2-1.5-.1-2.4.8-.6.6-1.1 1.4-1.2 1.7-.2.4-.3.5-.5.3-.1-.3-.4.2-.8 1-.5 1.5-.5 1.5-2 1.5-.9 0-1.6 0-1.8-.2zm-51.7-5c0-2.7.1-5 .3-5 .1 0 .5.3.8.7 1.1 1.2 2.2 1.4 7.5 1.2 5.3-.2 7.2-.6 10.1-2.3l1.5-.6c.3.2 3.8-3.5 5.2-5.6 1.1-1.5 1.3-1.7 1.6-1.2.3.4.5.4.8.1.3-.3.2-.5-.2-1-.3-.3-.4-.8-.2-1.4.1-.5.3-.7.3-.5.2.5 1.1.2 1.1-.4 0-.2-.2-.5-.4-.5-.3-.1-.2-.7.3-2.2l1.2-4 .6-1.8h2.4c2 0 2.3.1 1.6.4-1.1.4-1.1.8-.1 1.2.5.2.7.5.6 1l-.8 6.4a51 51 0 01-1 6l-.2 2.3c0 1-.2 3.6-.5 5.6l-.7 5-.2 1.6h-31.6v-5zm24.3 2.9c0-.3-.1-.5-.3-.5-.2 0-.3.2-.3.5s.1.5.3.5c.2 0 .3-.2.3-.5zm2.4-1c-.3-.6-.5-.6-.5.2 0 .4.2.6.4.5.1-.1.2-.4 0-.7zm-4.7-3.2c0-1.6 0-3-.2-3-.1 0-.5.5-.7 1-.5 1-.5 1.3 0 3.1.2 1.1.5 2 .6 2l.3-3zm9.4-6.7c0-.3-.2-.4-.4-.3-.1.1-.3.3-.3.5s.2.3.3.3c.2 0 .4-.2.4-.5zm-5.8-1.5c0-.1-.2-.2-.5-.2-.2 0-.5.2-.5.4 0 .3.2.4.5.3.3 0 .5-.3.5-.5zm7.7-3.6c0-.7-.1-1-.3-1-.6.4-.4 2.1.2 2.1v-1.1zm-3.9-.6c0-.5-.1-.8-.3-.8-.2 0-.3.3-.3.8 0 .4.1.8.3.8.2 0 .3-.4.3-.8zm.7-4.6c0-.8 0-.8-.5-.3-.3.2-.5.6-.3.8.4.7.8.4.8-.5zm2 .2c0-.1-.3-.3-.6-.3-.2 0-.5.2-.5.3 0 .2.3.4.5.4.3 0 .5-.2.5-.4zm2-2.8c.2-.8-.4-1.4-.9-1.1-.3.2-.3 1.5 0 1.8.4.4.9 0 1-.7zm-2.5-.6c0-.2-.3-.3-.5-.1-.3.1-.3.4-.2.7.3.4 1-.1.7-.6zm-64.6 24.1l.1-2.1h2.6c3.2 0 5-.4 5.7-1.3.5-.6.5-1.5.4-9a73.7 73.7 0 01.8-14.3c.1-1.4 0-1.6-.4-1.4-.5.1-.5-.3-.5-3.8 0-2.7.1-3.8.3-3.5.2.4.3.1.3-.9 0-.7-.1-1.3-.3-1.3-.3 0-.3-1.8-.3-5.8v-5.7c-.2 0-.3-2.6-.3-5.8 0-4.3 0-5.8.4-5.8.3 0 .3 0 0-.2-.4-.2-.7-3.8-1-10 0-3.3 0-3.4-1-4.2-1.2-1-2.2-1.2-5-1.2h-2V43h4.2a19.7 19.7 0 015.5.4c.6-.1.8 0 .7.2-.4.5.3.4.8-.1.3-.3 1.1-.5 1.9-.5 1.3 0 1.3 0 .7.6-.3.4-.4.7-.2.7s.5-.2.6-.4c.1-.2.6-.3 1.1-.2.5 0 .9 0 .8-.2 0-.2 2.2-.4 6.9-.4l6.8-.1v4.8c0 4-.1 5-.6 5.4-.7.8-1 3.2-1 7.9-.1 10.2 0 9.1-.9 9.1-.7 0-.7 0-.4 1.4.2.9.5 1.5.8 1.5.4 0 .5.5.4 1.7 0 .3.2.5.7.5.7 0 .7 0 0 .4-.6.2-.7.4-.6 1 .4 1.2.6 7.4.3 8.8l-.3 1.3h1.2c.8 0 1.2.2 1 .4 0 .1-.6.3-1.2.3h-1.1v1.6c0 .9-.2 2-.3 2.2-.3.5-.3.7.2.9.4.2.4.2-.1.6-.5.4-.5.5-.1.8.3.2.3.3 0 .3s-.4.3-.2 1.3l.2 2.3c0 .5.1.9.3.9.1 0 .2.2.1.4-.1.3.2.7.8 1 1.3.6 1.6 1.2.6 1-.6-.2-.8 0-1 .3-.1.3.1.6 1 1l1 .5h-1.6c-1.8-.1-1.8 0 0 1.1.4.4.4.5 0 .6-.2.2 0 .3.6.6l.9.4-1.2 1.2c-.7.7-1 1.2-.8 1.3 1.6.4 1.7.5 1.2.8a3 3 0 01-1.3.3c-1.1 0-.1.6 1.1.7.6 0 .7.1.4.2-.3 0-.5.2-.5.4l-.8.5c-.7.2-.7.2.2.6 1 .6 1 1.1-.2 1.2-.6 0-.6 0-.1.3s.5.4.2.8-.2.5.6.6c1.3.3 1.5.6.9 1.1-.7.6-.6 1 .2.8.5-.1.6-.1.3.1-.5.4-.2 2 .5 3.2.6 1 .4 1.1-1.2 1.3-.7.1-1.3.3-1.3.5v2.2l.1 2 .2-1.6c.3-1.6.3-1.5.3.7v2.3l-1 .2a360.7 360.7 0 00-25.4 0l-2.8.2v-2zm15.9.5c.2-.4-2.2-.4-2.8 0-.3.2.1.3 1 .3 1 0 1.7-.2 1.8-.3zm2.6-.2h-.6c-.2 0-.2.1.2.1.3 0 .5 0 .4-.1zm9-.2c0-.1-.3-.3-.8-.3-.7 0-.8.1-.4.3.6.4 1.3.4 1.3 0zm-.3-.8h-.7c-.2 0-.1.2.2.2.4 0 .6 0 .5-.2zm-13.4-2.3c-.2 0-.5 0-.7.2-.2.2-.1.3.4.1.4 0 .6-.2.3-.3zm-2 0c0-.2 0-.4-.2-.4s-.4.2-.4.3c0 .2.2.4.4.4.1 0 .3-.2.3-.4zm7.4 0h-.7c-.2.1-.1.2.2.2.4 0 .6 0 .5-.1zm-5.4-1.2c.2-.2.6-.5.8-.5.3 0 .5-.1.5-.3 0-.2-.3-.3-.7-.3-.3 0-.6.1-.5.3.1.1 0 .3-.4.4-.4.1-.7.4-.7.6 0 .5.5.4 1-.2zm2.3-1.4c-.3-.1-.4-.4-.2-.6.1-.3 0-.3-.7-.2a6 6 0 01-1.5.2c-1.2 0-.4.6.8.7a45.3 45.3 0 011.6 0zm-4.6-.2h-.6c-.3 0-.2.1.2.2.3 0 .5-.1.4-.2zm6.5-.1c0-.2-.3-.4-.7-.4-.4 0-.6.2-.5.4l.7.3c.3 0 .5-.2.5-.3zm-6.7-11.1c-.2-.1-.6-.1-.8 0l.4.1c.5 0 .6 0 .4-.1zm17-3c0-.2-.3-.3-.6-.3s-.4.1-.3.3c.1.2.3.3.5.3s.3-.1.3-.3zm-.9-3.3c.2-.2.1-.2-.1-.1s-.4 0-.4-.1c0-.2-.1-.3-.3-.2-.2.1-.3.3-.3.5 0 .4.9.4 1.1 0zm-17.6-57.2c-.1-.2-.5-.3-1-.3-.4 0-.8.1-1 .3 0 .2.4.3 1 .3.7 0 1.1-.1 1-.3zm10.9 0c0-.2 0-.3-.2-.3-.1 0-.3.1-.3.3l.1.3.4-.3zm92.2 82c-.4-.7-.3-5.8.1-6.3.2-.3.3-.5.1-.5l1.3-.8c1.8-1 4.4-3.5 5.2-5.2.4-.9.6-2 .6-4.2 0-2.7-.1-3.3-1-5.1a21.7 21.7 0 00-8.2-8l-3-1.9c-.2 0 0-.3.4-.5.3-.3.5-.6.3-.8-.3-.3-2.2-.3-2.4 0-.3.3-4.5-2.3-7.4-4.4-1-.7-2.6-2-3.7-2.6-2.4-1.7-4.9-4.7-6.7-8-2-3.5-3.2-6.6-2.7-6.8.5-.1.4-1-.2-1.4-.6-.5-1.3-6.6-.8-6.9.1-.1.3-1.1.3-2.3 0-2.7.7-6.2 1-5.3.3.6.3.5.2-.2 0-.5 0-.8.2-.7.1.1.3-.3.3-.8 0-.6.2-1 .6-1.3.5-.2.6-.5.5-1-.2-.6.3-1.5 2-3.7 4.4-5.6 8.8-8.2 15.2-8.9l2-.2.3 2.4v3c-.1.4 0 .7.3.8 1 .4.5 1.1-1 1.3-2 .2-5.3 2-6.6 3.4-.6.8-1.3 2-1.5 2.8l-.6 1.4c-.1 0-.2 1-.2 2.2 0 1.2 0 2.2.2 2 .2 0 .3.2.3.5 0 1.4.2 2 .6 2.4.4.3.4.3.2 0-.1-.3.1-.1.5.4 2.8 3.6 3.8 4.4 15.6 12 3.5 2.2 4.2 2.7 4 3.2-.2.7.3.9.7.3.3-.5 3 1.6 6 4.5 2.8 2.9 4.2 4.9 4.5 6.7.1.5.6 1.4 1 1.8.7.7.8 1 .7 2-.1.8 0 1.1.4 1.4 1 .7 1.3 2.7 1.3 6.8 0 3.7-.7 8.6-1.3 8.8-.2 0-.2.2-.1.4.2.4-.8 3.4-1.6 4.7-.9 1.4-1.3 3.8-.8 4 .3 0 .2.2 0 .2a.6.6 0 01-.7-.5c-.1-.4-.6 0-1.9 1.3a41 41 0 01-3.3 3c-.8.7-1.3 1.3-1.1 1.4.2 0-.5.4-1.6.8s-2 .9-1.8 1c0 .2-.3.4-.7.5l-2.4.7c-1.6.5-3.4.6-3.6.1zm12.6-9.2c0-.3-.2-.4-.5-.3-.3.1-.5.3-.5.5s.2.3.5.3.5-.2.5-.5zm-3.7-8.8c0-.1 0-.3-.3-.4-.3-.1-.4 0-.3.3.2.5.3.5.6.1zm11-2c-.2-.2-.2-.2-.2.2s0 .5.1.4v-.6zm-19.6-10.5l-.6-.3c-.2 0-.2.2 0 .5.5.5 1 .4.6-.2zm-2.7-1.7c-.3-.2-.4-.2-.4.2 0 .6.5 1 .6.6 0-.2 0-.6-.2-.8zm-5.7-3.4c0-.2-.3-.3-.5-.3-.1 0-.2.1 0 .3 0 .2.2.3.4.3s.3-.1.1-.3zm-2.4-1.2c-.5-.2-.7.1-.4.6.1.3.3.2.5 0v-.6zm27-3.3l-.6-.6.2.6.5.7-.2-.7zm-1.7.2l-.3-.3c-.2-.1-.3 0-.3.1 0 .2.1.3.3.3l.3-.1zm-4.1-2.3c0-.2-.2-.4-.4-.4-.1 0-.3.2-.3.4 0 .3.2.5.3.5.2 0 .4-.2.4-.5zm-8.7-9c-.5-.7-1.3-1-1.3-.4 0 .3 1.4 1.3 1.6 1.1l-.3-.7zm-28.8-8.2c0-.3-.1-.5-.3-.5-.2 0-.3.5-.3 1 0 .8 0 1 .3.6.2-.3.3-.7.3-1zm10.8-9c0-.1-.2 0-.2.5 0 .4.1.6.2.4v-.8zm.4-3.5c0-.3-.2-.5-.5-.5-.5 0-.5 0-.2.8.2.6.7.3.7-.3zm-.6-1.9c.2-.3.1-.6-.5-1-.7-.4-.8-.4-1 0-.2.5.4 1.4.8 1.4l.7-.4zm-258.6 66l.3-.4c.2-.1.4 0 .4 0 0 .3-.2.5-.4.6-.1.1-.3 0-.3-.1zm293.8-3.6l.5-.3c.3-.1.4 0 .3.1-.2.3-.8.5-.8.2zm-296.6-2.1c-.3-.2-.4-.4-.3-.5 0 0 .3 0 .6.3.4.6.3.6-.3.2zm15.6-2l.3-.4c.2-.1.4 0 .4.3s-.2.5-.4.5l-.3-.3zm74 0s0-.3.3-.4c.1-.1.3 0 .3.3s-.2.5-.3.5c-.2 0-.4-.2-.4-.3zm189-2c-.2-.5-.2-.6.1-.3.2.3.3.5.2.6 0 .1-.3 0-.4-.4zm-302.7-2l.2-.4.3.5-.1.4c-.2 0-.4-.2-.4-.4zm301-.6c-.3-.5-.4-.8-.2-.6.4.2 1.1 1.4.9 1.4l-.7-.8zm-68-1.3c0-1.4 0-1.7.5-1.5.3.1.5 0 .5-.4 0-.3-.2-.5-.5-.3-.7.2-.6 0 .5-1.2 1-1 1.2-2 .6-2.3-.1 0-.3.3-.4.8-.2.7-.3 1-.6.7l-.7-.2c-.6 0-1.2-3-.8-4 .3-.8.2-1.1-.2-1.6-.3-.3-.5-.7-.5-1 0-.1-.2-.3-.4-.3-.6 0-1.6-2.4-1.4-3.2.3-1-.3-2.8-1.1-3.2-.5-.3-.6-.2-.6.7 0 .6-.1.9-.3.7a6.8 6.8 0 00-3-1.7c-.3 0-.7-.3-1-.7-.4-.6-.5-.6-.8-.1-.6 1.1-1 0-1-2.6 0-2.5 0-2.7.6-2.7.4 0 .7-.2.8-.3.2-.2.7-.4 1.2-.4s1-.1 1.1-.4l1.4-1.1.8-.4c-.1.3 0 .4.2.3.9-.3 2.5-2.8 3.5-5.5l1.3-3.3a27.4 27.4 0 00.9-7.5c-.3-.2-.3-.4 0-.7.3-.3.4-.3.4.1 0 .3.2.6.6.7.5.1.6.7.7 5 .2 5.8.3 28 0 27.2-.1-.7-.7-.8-.7-.1 0 .3.2.6.5.7.4.1.5.8.5 3.6l.2 5.6.3 2.2h-2.9l-.1-1.6zm-9.1-20.6c0-.2 0-.3-.2-.3-.1 0-.3.1-.3.3l.1.3.4-.3zm7.7-1.7v-1.8l-.7.5c-.5.6-.6 2.4 0 3 .5.5.5.3.7-1.7zm-5.3.9c0-.3-.2-.5-.5-.5s-.5.2-.5.5.2.5.5.5.5-.2.5-.5zm3.5-2.6c0-1.1 0-1.4-.4-1.2-.2.3-.2.8-.1 1.5.3 1.6.5 1.5.5-.3zm-1.3 0c0-.5-.2-.7-1-.8-1.4-.2-1.5.9 0 1.4 1 .3 1 .3 1-.5zm6.4-3.5l-.3-.3c-.2-.1-.3 0-.3.1 0 .2.1.4.3.4.2 0 .3 0 .3-.2zm.3-7.5c0-.2-.1-.3-.3-.3-.2 0-.3.1-.3.3 0 .2.1.3.3.3.2 0 .3-.1.3-.3zM59.5 106.6h.6c0 .1-.1.2-.4.2-.4 0-.5-.1-.2-.2zm297.3-1.7l-.2-.7.5.7.2.6-.5-.6zM86 104.5l.5-.3c.2 0 .3.2.2.3-.1.2-.4.4-.6.4-.1 0-.2-.2 0-.4zm268.6 0c-.1-.6-.2-1.3 0-1.1.2.2.4 1.1.2 1.1h-.2zm1.3-1c-.2-.4-.3-.6-.2-.7 0 0 .3.1.5.5.5.7.3.8-.3.1zm-2.7-1.2v-.5c0-.1.2 0 .3.3.2.6 0 .7-.3.2zm49.7-3.8l-.2-3.4a109.5 109.5 0 00-3.5-18.5c0-.4-.3-1.3-.7-2-.6-1-.6-1.3-.4-4.7.3-3.5.3-3.8-.5-6-.4-1.5-.8-3.5-1-5.3 0-1.6-.2-3-.4-3-.1-.1-.4-1.4-.5-2.8-.1-2 0-2.8.3-3.5a26 26 0 002-5.2c.3-1.9 5.1-4.2 8-3.8 3 .4 6 2.8 7.4 6.2.7 1.6.8 2.3.9 5.4 0 3.6-.5 9.5-1 10.8-.2.4-.4.5-.4.3 0-.3-.3-.2-.8.3-1 1-1 1-.2 2.1.6.8.6 1.1.4 2.2a14 14 0 00-.4 2.5c0 1 0 1.2-.3.8-.3-.4-.4-.4-.8.2-.6.8-.6 1.1 0 1.3.3.1.5.6.5 1.2 0 .7-.1.9-.5.8-.6-.3-.9.7-.6 2.5.2 1.4.2 1.5-.5 1.3-.7-.3-1 .3-.1.6.3.2.4.5.3 1a93.2 93.2 0 00-3 20.6c-.1.8-.2.9-2 1l-2 .1zm6.1-18c0-1 0-1-.4-.5-.5.7-.7 2.5-.3 3 .3.2.7-1 .7-2.5zm3-14.7c0-.2-.2-.3-.4-.3s-.3.1-.3.3c0 .2.1.3.3.3.2 0 .3-.1.3-.3zm-.7-15c0-.4-.1-.6-.3-.5-.2.1-.2.4-.1.7.2.6.4.5.4-.2zM85 100.4c0-.2.3-.3.5-.3s.2.1.1.3c-.1.2-.3.3-.5.3s-.2-.1-.1-.3zm-69.3-1.5c0-.4.1-.4.2-.2v.6c-.1.1-.2 0-.2-.4zm77-5.6l.3-.3.1.3c0 .2-.1.4-.3.4-.2 0-.3-.2-.2-.4zm-11.4-.6c0-.2.2-.3.5-.3l.4.1-.4.3c-.3.1-.5 0-.5-.1zm-65.8-.3c0-.2 0-.3.2-.3s.3.1.3.3l-.1.3-.4-.3zm95.9-1.6c0-.2.2-.2.4-.1.3 0 .5.2.5.3l-.5.1c-.2 0-.4-.1-.4-.3zm73.9 0c0-.2.2-.2.5-.1.2 0 .4.2.4.3l-.4.1c-.3 0-.5-.1-.5-.3zm96.8-1.6c-.1-.2-.2-.5 0-.6.2-.3.6.2.4.6-.1.4-.2.4-.4 0zM89.8 88c0-.2.3-.3.5-.3.1 0 .3.1.3.3 0 .2-.3.3-.5.3-.3 0-.4-.1-.3-.3zm21.6-2c0-.1.1-.2.3 0 .2 0 .3.2.3.3l-.3.1c-.2 0-.3-.1-.3-.3zm73.9 0c0-.1.1-.2.3 0 .2 0 .3.2.3.3l-.3.1c-.2 0-.3-.1-.3-.3zM77.8 84.5c0-.2.1-.3.3-.3.2 0 .3.1.1.3 0 .2-.2.3-.3.3l-.1-.3zm1.4-4.8c.1-.2.3-.3.5-.3s.3.1.1.3c0 .2-.3.3-.5.3-.1 0-.2-.1 0-.3zM51 78.9l.8-.3c.2 0 0 .2-.2.3a2 2 0 01-.8.4c-.2 0 0-.2.2-.4zm58.8.2c-.4-.4 0-.8.6-.8.3 0 .9.2 1.2.5.6.4.6.5-.5.5l-1.3-.2zm73.9 0c-.3-.4 0-.8.7-.8.3 0 .8.2 1.1.5.6.4.6.5-.5.5l-1.3-.2zm-109-.8c0-.2.2-.3.4-.3.3 0 .5-.2.6-.4.2-.3.2-.3.2 0 0 .2-.2.5-.6.7-.4.2-.6.2-.6 0zm.6-2.6c0-.1.2-.3.5-.3.2 0 .5.2.5.3 0 .2-.3.4-.5.4-.3 0-.5-.2-.5-.4zm241.5-8c-1.3-4-1.8-5.2-3.4-7.6-2.3-3.3-4-5-7.1-6.6a22 22 0 00-11.5-2.4h-4.4l-1.2 1-1.3 1v-4.7-4.8l12.5-.3c11.4-.2 12.4-.2 11.9.3-.5.4-.6.5-.1.5.3 0 .7-.3 1-.5.3-.4 1.2-.5 3.3-.5h3l.1 1 .3 3.2.5 3.8a187.9 187.9 0 011.6 12c.2 1.6.2 2.1-.3 3.1-.4.8-.4 1.2-.2 1.3.3.1.3.4 0 1.2-.5 1.2-.4 1.4.7 1.4.7 0 .8 0 .8 1.3 0 1-.1 1.2-.3.8-.3-.4-.4-.4-1 0-.3.2-1.2.3-2 .3h-1.4zm3.6 1.8c0-.2-.1-.5-.3-.6-.2-.1-.3 0-.3.4s.1.7.3.7c.2 0 .3-.2.3-.5zm-1.3-1.4c0-1-.3-2.6-.6-2.6-.4 0-.4 2.7-.1 3 .4.4.7.2.7-.4zm-13-23.6c0-.2-.2-.4-.4-.4s-.3.2-.3.4c0 .3.1.5.3.5.2 0 .3-.2.3-.5zM109.7 71c-.8-.3-.6-1 .3-1 .8 0 1.6.4 1.6.7 0 .4-1.1.6-1.9.3zm74 0c-.9-.3-.7-1 .2-1 .8 0 1.6.4 1.6.7 0 .4-1 .6-1.9.3zm195.7-.6c0-.3.2-.6.3-.6.2 0 .4-.5.4-1.2 0-1.4-.7-1.4-.7 0 0 .5-.4-.6-.8-2.5a27.6 27.6 0 00-11.3-18l-1.5-1 .1-3.4.2-3.6 5.2 2.4c5 2.5 6.7 3 7 2.2l.5-2.2.4-1.9h4v9.8c0 9.3 0 9.8-.5 10.4-.5.4-.6.7-.5 1.6.2 1.2.7.8.8-.6v-.8l.3.8.3 5v4.2h-2c-2 0-2.2 0-2.2-.6zm3.5-4.9c0-.5 0-.6-.3-.2-.1.2-.2.5 0 .7.2.4.3.3.3-.5zm-3.5-7.4c0-.3-.1-.4-.3-.3-.2 0-.3.3-.3.5 0 .1.1.3.3.3.2 0 .3-.3.3-.5zm-1.8-3.9c.3-.7 0-1.3-.4-.7-.4.6-.4 1.2 0 1.2.1 0 .3-.2.4-.5zm4.9-.7c0-.6-.7-.5-.8.1 0 .4 0 .5.3.4.3 0 .5-.3.5-.5zM74.6 70c0-.2.1-.3.3-.3.2 0 .3.1.1.3 0 .2-.2.3-.3.3l-.1-.3zm3.6-1.5c.6-.6 1-.7 1.2-.5.4.4-.8 1.3-1.6 1.3-.3 0-.2-.2.4-.8zm32.8-2.7c.3-.3.5-.3.7 0 .3.3.3.3-.3.3s-.7 0-.4-.3zm73.9 0c.3-.3.5-.3.8 0 .3.3.2.3-.4.3-.6 0-.7 0-.4-.3zm-74.2-1.5h.6c0 .2-.1.2-.4.2-.4 0-.5 0-.2-.2zm73.9 0h.6c.1.2 0 .2-.4.2s-.5 0-.2-.2zm115.2-2.2c0-.4.1-.4.5-.1l.5.5-.5.1c-.2 0-.5-.2-.5-.5zm-190.7-3.5c0-.3.2-.5.6-.4.8.2.9.9 0 .9-.3 0-.6-.2-.6-.5zm74 0c0-.3.2-.5.5-.4.8.2.9.9.1.9-.4 0-.7-.2-.7-.5zM54.6 54c0-.2.2-.4.3-.5.2-.1.3 0 .2.3-.2.6-.5.7-.5.2zm-39.6-.8c-.5-.7-.5-1 .3-1.2.5-.2.6 0 .6.7 0 1-.3 1.2-.9.5zm44.6-9.4c.3-.4.8-.7 1-.7.5 0 .5 0 .1.2a5 5 0 00-1.1.7c-.6.5-.6.5 0-.2zm-44-2.8c0-.4.1-.5.2-.2v.6c-.1.1-.2 0-.2-.4zm-.5-17c-.3-.2-.5-.4-.3-.5.4-.2 1.4.3 1.1.5h-.8zm410.2-4.7c-.5-1-.5-1.8-.1-1.8.2 0 .3.1.1.3 0 .2 0 .6.2 1l.3 1c-.1.2-.3 0-.5-.5zm-68-3.4c.7-.4 1.1-.4.8 0 0 .2-.4.3-.7.3-.5 0-.5 0 0-.3zm-289 140.8c0-.2 0-.3-.2-.3s-.4.1-.4.3c0 .2.1.3.2.3l.3-.3zm352.6 0c-.1-.2-.5-.3-.8-.3-.4 0-.4 0 .1.3.9.4.9.4.7 0zm-397.8-.8l-.2-.8c-.2 0-.3.4-.3.8s.1.8.3.8l.2-.8zm2.5-.5c0-.2-.4-.4-.8-.6-.7-.4-.7-.4-.1.1s.6.6.2 1.3c-.4.7-.4.7.2 0 .4-.3.6-.7.5-.8zm43.7 1c0-.2-.1-.3-.3-.3-.2 0-.3.1-.3.3 0 .2.1.3.3.3.2 0 .3-.1.3-.3zm193.6 0l-.1-.3-.3.3c-.1.2 0 .3.1.3.2 0 .3-.1.3-.3zm79.7-.8c.3-.3.2-.4-.3-.3-.5 0-.8.3-.9.8 0 .6 0 .7.3.3.3-.3.6-.7.9-.8zm-302.3 0c.1-.5 0-.8-.2-.8-.3 0-.5.3-.6.8 0 .5 0 .8.3.8.2 0 .4-.4.5-.8zm330.5-.2c0-.2-.2-.3-.4-.3-.1 0-.2.1 0 .3 0 .2 0 .3-.2.3s-.4.2-.4.4c0 .3.2.2.5 0l.5-.7zm2 .8l-.4-.3c-.2-.1-.3 0-.3.1 0 .2.1.4.3.4.2 0 .3 0 .3-.2zm49.7-.2c.3-.5-.4-1-1.3-1-.8 0-1 .6-.2 1 .7.5 1.2.5 1.5 0zm-1.2-.5h.8c.2.1 0 .2-.4.2-.5 0-.7 0-.4-.2zm-375 .4c-.4-.3-2-.4-1.7-.1 0 .1.5.3 1 .3.4 0 .7-.1.6-.2zm9.4-.2a.7.7 0 00-.5-.3c-.3 0-.2.2 0 .3.7.4.8.4.5 0zm206.8 0c0-.1 0-.3-.2-.3s-.3.2-.3.3l.1.4.4-.4zm112-.2c.1-.4 0-.4-.3 0-.6.4-.7.6-.2.6l.4-.6zm-348.2-.8c-.5-.8-.7-.5-.1.5.2.3.4.5.5.4 0 0 0-.5-.4-.9zm27.4 0c0-.7 0-.7-.5 0-.2.3-.4.7-.3.8.3.4.8 0 .8-.8zm228 .6a.8.8 0 00-.7-.5c-.4 0-.5 0-.1.5l.6.4c.2 0 .2-.2.1-.4zm119.1 0c.1-.1-.1-.2-.5-.2s-.8.1-.9.3c-.2.3 1 .2 1.4-.1zm16 .1c0-.2.3-.3.6-.3.2 0 .4-.1.3-.3-.2-.3-.4-.3-.7 0a1 1 0 01-1 .2c-.2-.1-.4 0-.4 0 0 .4.5.7 1 .7.2 0 .3-.1.3-.3zm3-.1c-.2-.3-.6-.4-.8-.3-.3 0-.5 0-.6-.3-.1-.2-.1-.2 0 .1 0 .3-.2.7-.5.7-.3.1 0 .2.8.2 1.2 0 1.4 0 1-.4zm-390.1-.7l-.7.2-.6.5.6-.2.7-.5zm29 .5c0-.2.3-.2.6-.1s.4 0 .4-.3c0-.6-.8-.4-1.5.3-.3.4-.3.4 0 .4.4 0 .6-.1.6-.3zm6.3-.3c0-.4 0-.7-.2-.7-.3 0-.3.8 0 1.1.3.3.2.3.2-.4zm15 .3c0-.2-.2-.3-.2-.3l-.4.3c0 .2 0 .3.2.3s.3-.1.3-.3zm193.5-.2c.2-.2.3-.4 0-.4l-.4.4-.1.5.5-.5zm63.8.2a.7.7 0 00-.5-.3c-.3 0-.2.1 0 .3.7.4.8.4.5 0zm2.8-.7c0-.2-.2-.2-.4-.1-.1.1-.3.4-.3.7 0 .5 0 .5.3.1l.4-.7zm6.4.9l-.4-.4c-.1 0-.3 0-.3.2s.2.3.3.3l.4-.1zm56-.7c-.3-.5-.3-.5-.3-.1 0 .5.3 1 .5.8 0 0 0-.4-.2-.7zm2 .5c.1-.1 0-.4-.3-.6-.3-.3-.4-.3-.2.3.2.7.3.8.5.3zm10.3-.3c-.1 0-.4 0-.6.3-.3.3-.3.3.2.1.3 0 .5-.3.4-.4zm-384 0c0-.2 0-.3-.2-.3-.1 0-.3.1-.3.3l.1.3.4-.3zm23.7 0c0-.2 0-.3-.2-.3s-.3.1-.3.3l.1.3.4-.3zm8.8-.3c0-.2-.4-.3-.8-.3-.8 0-.8 0-.3.4.6.4 1 .4 1-.1zm23.5-.1c0-.3-.1-.2-.1.2 0 .3 0 .5.1.4v-.6zm193.1.3c0-.4-.2-.4-.7-.3-.7.2-.7.2 0 .4l.6.3.1-.4zm58.8 0v-.2c-.2.2-.6.1-.8-.1-.5-.4-.5-.4-.1.1.5.7.6.7.9.2zm-296-.2v-.4l-.4.4c-.1.1 0 .3.1.3.2 0 .4-.2.4-.3zm232 0c0-.2 0-.4-.2-.4s-.4.2-.4.4c0 .1.2.3.4.3l.3-.3zm67.4 0c.2-.2.1-.4 0-.4-.3 0-.5.2-.6.4-.1.1 0 .3.1.3.2 0 .4-.2.5-.3zm84-2.6c0-.1 0-.4-.2-.4-.2-.1-.3 0-.3.3 0 .2.1.4.3.4.1 0 .2-.1.2-.3zm1.6-1.5c.3-.2.2-.3-.3-.3s-.8.3-.8.9c-.1.6 0 .7.3.3l.8-.9zm-.4-1c0-.2 0-.4-.2-.4l-.5.3.1.4c.2 0 .5-.2.6-.4zm2.3-1.3c-.2-.6-.1-1 0-1 .2 0 .1-.3-.3-.6-.7-.8-1-.9-.7-.3l.3.8.3 1c.1.6 0 .7-.4.5-.5-.1-.5-.1 0 .2.7.5 1 .4.8-.6zm-1.9 0h-.6c-.4 0-.6.1-.5.3.2.2 1.1 0 1.1-.2zm-412.5-.8c.7-1.1.2-2-.7-1-1.1 1.2-1.2 1.4-.4 1.4.5 0 1-.2 1-.4zm413.3-2.3c.1-.2 0-.5-.1-.5-.2 0-.3.3-.3.5v.5c.2 0 .3-.2.4-.5zm-1-2.4c-.2-.3-.4-.8-.4-1.2 0-.6 0-.7-.3-.5-.3.3-.2.7.1 1.4.3.6.7 1 .8.8 0 0 0-.3-.2-.5zm-414-2.6c0-.3-.1-.2-.1.2 0 .3 0 .5.1.4.1 0 .2-.4 0-.6zm413.8-2.2c-.1-.2 0-.3.3-.3.2 0 .5-.1.5-.3 0-.2-.3-.2-.5-.1-.3 0-.7 0-1-.3-.5-.4-.5-.3-.4.2l.3.8c0 .2.2.3.5.3.2 0 .4-.1.3-.3zm.4-2c.4-.4.4-.5 0-.5l-1-.2c-.4-.2-.6 0-.6.3 0 .4.4.7 1 .8.2 0 .4-.2.6-.5zm11 .2l-.7-1.2c-.1-.6-.4-1-.6-.9-.3 0-.6 0-.9-.3-.3-.3-.4-.2-.4.2 0 1 .6 1.8 1.2 1.8.4 0 .7.1.8.3l.6.3c.3 0 .3 0 0-.2zm-11-1.5c0-.3-.2-.5-.5-.5-.4 0-.4.1-.2.2.2 0 .3.3.2.5 0 .1 0 .2.2.2s.3-.2.3-.4zm13.5-4.3c0-.5-.2-.6-.7-.5-.5.2-.5.3-.2.6.5.7.9.6.9-.1zm-2.4-2.6c0-.1 0-.4-.4-.5-.7-.2-.7-.2-.7.3s.8.7 1 .2zm1.3-2c.3-.3.4-.6.3-.6l-.9.7c-.4.3-.5.6-.3.6l.9-.6zM4.5 116.4c.7.1.7.1.2-.3-.3-.3-.5-.6-.5-.8.1-.9 0-1-.7-.7-.3.2-.5.5-.4.7.1.2.3.1.5-.1.2-.4.2-.4.2 0 0 .3-.3.6-.6.7-.4.1-.6.4-.5.6.2.2.4.2.6 0 .2-.2.8-.2 1.2-.1zM1 110.9c0-.1-.2-.3-.4-.3l-.3.3c0 .2.2.4.3.4.2 0 .4-.2.4-.4zm2.4-.9c-.1 0-.4 0-.5.3-.2.3-.2.6 0 .7.5.3.8-.6.5-1zm-.3-1.8c0-.8-.2-1.4-.3-1.4-.2 0-.2.6-.1 1.3.2 1.7.2 1.6.3 1.6v-1.5zM3 98c-.1-.8-.4-.9-.4-.2 0 .4 0 .7.2.7.1 0 .2-.2.2-.5zm425-2c0-.2-.2-.3-.6-.2l-.6.3.6.1c.4 0 .7-.1.7-.3zM3.2 94c0-.2 0-.4-.2-.4s-.3.2-.2.6c0 .7.3.6.4-.2zm424.7 0c0-.3-.1-.4-.5-.3a3 3 0 01-.8.2c-.2 0-.2.1 0 .3.2.5 1.3.4 1.3-.2zM3.2 92.5c0-.3-.1-.4-.3-.3-.2.1-.3.4-.2.5.3.5.5.4.5-.2zm426.6-3c0-.2-.2-.3-.4-.3-.1 0-.3.1-.3.3 0 .2.2.3.3.3.2 0 .4-.1.4-.3zM14.6 88.2c-.2-.2 0-.5.3-.8.5-.3.5-.4.1-.4-.2 0-.4-.1-.4-.5 0-.3 0-.5-.1-.4-.4.4-.4 2.4 0 2.4.1 0 .2-.1 0-.3zm414.7-.7c-.1-.1 0-.2.1-.2.2 0 .3-.2.2-.3-.3-.5-1 0-1 .6 0 .3.2.5.4.4.3 0 .4-.3.3-.5zm-425.8-9h-.3c-.2 0-.3.3-.3.5s.1.2.3.1c.2-.1.3-.3.3-.5zm426 .6l-.6-.3c-.2 0-.4 0-.3.1.2.4.8.5.8.2zM4 77.7c.1-.2 0-.4-.1-.4-.2 0-.4.2-.4.4 0 .1 0 .3.2.3l.3-.3zm-.3-4.3c.1-1 0-1.6-.3-1.8-.5-.4-.5-.3-.2.4.2.6.2.8-.2 1-.4.1-.4.3 0 1 .3.3.5.8.4.9-.1.1-.1.1 0 0 .1 0 .3-.7.3-1.5zm425.1-.4c0-.5-.2-.8-.5-.8-.2 0-.5.2-.5.3 0 .2.2.4.4.4.1 0 .2.2 0 .4 0 .3 0 .5.3.5.1 0 .3-.3.3-.8zM15.4 71.3c0-.2-.3-.4-.5-.4-.3 0-.5.2-.5.4 0 .1.2.3.5.3.2 0 .5-.2.5-.3zm412-.7c-.2-.3-.3-.3-.5 0-.4.6 0 1.1.4.7.2-.2.2-.5 0-.7zm-412-.5c.2-.2 0-.7-.4-1l-.6-.9v1c0 1 .7 1.5 1 .9zm413.4-.4c0-.2-.3-.3-.7-.2-1 .2-1.1.5-.1.5.4 0 .8-.2.8-.3zM3.7 68s-.4.1-.6.4c-.3.2-.4.5-.3.7.1 0 .4 0 .6-.4.3-.3.4-.6.3-.7zM427.6 66c-.3-.2-.4-.5-.2-.8.2-.3.1-.3-.2 0-.4.4-.2 1 .4 1 .3 0 .3 0 0-.2zm.2-3.1c-.1-.1-.3 0-.4.4-.2.4-.2.5.2.1.2-.2.3-.4.2-.5zm1.6-1.3c-.1-.1-.3 0-.4.4-.2.4-.2.5.2.2.2-.2.3-.5.2-.6zM14.6 60.3l-.1.4c0 .4 0 .6.1.4.1-.2.1-.6 0-.8zm415.2.4c0 .4 0 .4.3 0 .5-.8.4-1-.6-.5-.7.2-.9.4-.6.6.2 0 .5 0 .6-.2.2-.3.3-.2.3.1zM2.7 60.4c.1-.1 0-.2-.4-.2-.3 0-.6-.2-.6-.5V59c0-.4-.2-.4-.7 0-.4.2-.6.5-.5.6.1.2.4.1.5-.1.3-.3.3-.3.2.2-.2.7.1 1 1 1 .2 0 .4 0 .5-.2zm12-2.8c-.1-.5-.2-.2-.2.7 0 .9 0 1.3.1.9s.1-1.1 0-1.6zm415.2 1.1c.5 0 .5 0-.1-.5-.6-.3-.8-.4-1-.1 0 .2-.2.4-.5.4-.2 0-.5.1-.6.3-.2.3 0 .3.7.1l1.5-.2zm-.7-4.6c0-.2-.2-.4-.3-.3v.5c.4.5.6.4.3-.2zm-428-.4c0-.2.3-.3.4-.2.2.1.2-.2 0-.7-.3-.7-.2-.8.1-.6.3 0 .6 0 .7-.2.1-.1 0-.3-.1-.3l-.7-.1c-.3-.1-.6.2-.8.6l-.2.7c.1 0 .2.1.2.3 0 .2-.1.3-.2.2-.2 0-.3 0-.3.3 0 .4.6.4.8 0zM430 52c-.1 0-.4 0-.7.2-.3.3-.6.3-1 0s-.8-.4-1-.3v-.3c.2-.6-.2-.8-.6-.3 0 .2-.3.3-.5.2h-.3l1.8 1c1 .4 1.8 1 1.8 1.2 0 .2.2 0 .4-.6.2-.5.3-1 .1-1zm.9-.7c.3-.3.2-.3-1-.4-.3 0-.6-.2-.7-.4 0-.3.1-.3.6-.2.7.2.7.1.1-.7-.3-.5-.8-.8-1.1-.8-.8 0-1.6.3-1.6.6 0 .2.2.2.5.1.2 0 .5.1.6.4 0 .5.1.5.1-.1 0-.7.4-1 .8-.5v.6c-.2.1-.4.7-.6 1.2l-.4.9 1.2-.2c.6-.1 1.3-.3 1.5-.5zM2.6 51.1l-.4-.5c-.1 0-.3-.3-.3-.5s.2-.2.4 0c.2 0 .3 0 .1-.2l.1-.4c.4 0 .3-1.5 0-1.8-.2-.2-.3 0-.2.2 0 1 0 1.6-.4 1.6-.2 0-.2-.2-.1-.4s.1-.3 0-.2c-.4.4-.5 1.6-.1 1.6l.2.4c0 .3.2.5.3.5.2 0 .4-.1.4-.3zm429-1.6c0-.2-.1-.3-.4-.2-.2 0-.6 0-.8-.2-.2-.3-.3-.3-.3 0 0 .4.5.7 1.2.7.2 0 .4-.1.4-.3zm.7-1.4c0-.4-.6-.5-.8-.2 0 .2 0 .3.3.3l.5-.1zm.2-2.2c0-.2-.1-.2-.1.2s0 .5.1.4V46zm1.9-1.8c0-.1-.2-.4-.6-.7-.6-.4-.6-.3-.3.1.4.4.4.5 0 .7-.2 0-.2.1.2.2.3 0 .6-.1.7-.3zM433 42c-.3-.4-.7-.6-.7-.5-.2.2.6 1 1 1 .2 0 0-.2-.3-.5zM2.2 41.5c0-.2 0-.3-.3-.3l-.5.3c0 .2 0 .3.3.3s.5-.1.5-.3zm-1-1.2c0-.2 0-.3-.2-.2-.2 0-.4.4-.4.6 0 .3.2.4.4.3.1 0 .3-.4.3-.7zm1.5 0c.2 0 .4-.1.4-.4.1-.4.1-.4-.2 0-.5.7-.4.2.1-.8.3-.6.4-1 .2-1-.5-.2-2.2.6-2.4 1.1-.1.4 0 .4.3.1.3-.3.4-.2.5.1v1c0 .2.3.3.5.2l.6-.2zm.7-4.2c0-.6-.2-1-.4-1.1-.3-.1-.4 0-.4.4l-.2 1.1c-.2.4 0 .5.4.5s.6-.2.6-1zM427 35c-.1-.4-.3-.6-.4-.5-.1.2.2 1.1.4 1.1v-.6zm5-.3c0-.2-.1-.4-.3-.5-.1 0-.2 0-.2.3s0 .5.2.5.3-.1.3-.3zm1.5-1.5c.4-.3.3-.3-.3-.3-.4 0-.7.3-.8.8 0 .7 0 .7.3.3l.8-.8zm-6.9-1.5c-.3-.3-.4-.2-.4.4 0 .6.1.7.4.4.3-.3.3-.5 0-.8zm9-.1c0-.2-.4-.3-.8-.4-.6 0-.6 0-.2.3.6.4 1 .4 1 0zm5-3l-.2-.8-.3.8c-.4.9-.2 1.5.3 1 .2-.1.2-.6.2-1zM15.4 26.3c.2.1.3 0 .3-.1 0-.2-.3-.4-.6-.5-.4 0-.6.1-.6.7 0 .7 0 .8.3.3.1-.3.4-.5.6-.4zm-2.3 0c0-.2-.3-.6-.6-.8-.5-.3-.7-.2-.7.2 0 .3.2.4.3.3.2 0 .4 0 .5.3.2.6.5.6.5 0zm-1.8-1.6c-.2-1.4-.1-1.5.6-1.3.6.2.6.1.2-.1-.3-.2-.5-.6-.4-1l.2-.8-.6.7-.7.7v-.8c0-.4.2-.8.3-.8.2 0 .3-.1.3-.4 0-.2-.2-.4-.5-.4-.4 0-.7 1-.5 2l.2 1.7c.1 1.1.5 1.9 1 2l-.1-1.5zM426 24l-.1.5c0 .7 0 1 .1.6V24zm-412.7-.7c-.3-.2-.2-.3 0-.4.6-.2.4-.4-.5-.7-.4-.2-.7-.1-.7 0 0 .3.1.4.4.3.2 0 .4.1.4.4v.7c.1.2.3.2.5.1s.2-.3 0-.4zm-2.3-3.5a1 1 0 01-.6-.6c-.1-.4-.2-.4-.2.1 0 .6.1.8.7.7.5 0 .5 0 .1-.2zm4.4-.5c0-.2-.3-.4-.5-.5-.3 0-.3 0 0 .2.4.3.3.4-.3.5l-.8.2h.8c.5 0 .8-.3.8-.4zm-1.7-.6c0-.6-.1-.6-.3-.3-.2.3-.3.6-.2.8.3.4.5.2.5-.5zm-3-1c-.1-.2-.2-.1-.2.3 0 .3 0 .5.2.4v-.6zm2.8-.2c.2.2.5.2.6 0v.5c-.1.4-.1.5.1.4.2-.2.4-.5.5-.9.1-.5 0-.7-.8-1-1.2-.4-1.2-.4-1 .3.2.4.1.4-.3.3-.3-.1-.5-.1-.4 0 .1.3 0 .4-.2.4s-.2.1 0 .5c.5.5.5.4.8-.2.2-.5.3-.6.7-.3zm-2-1l-.2-.6-.5.7c-.2.3-.2.6 0 .4.2 0 .3.1.3.6 0 .6 0 .6.3.2.2-.3.2-.9.1-1.2zm119-.8c0-.4-1.9-.5-2.1-.1-.1.2.2.3 1 .3.6 0 1-.1 1-.2zm1.4-.1c.1-.2 0-.3-.1-.3-.2 0-.4.1-.5.3v.3c.3 0 .5-.1.6-.3zm217.1.2l-.5-.6c-.5-.4-.6-.4-.2.1.5.6.7.7.7.5zm45-.4c.3-.2-2.8-.2-3.3.1-.2.1.4.2 1.4.2 1 0 1.9-.2 2-.3zm1.6.2c-.9-.4-1.4-.4-.8 0 .2.2.7.3 1 .3.3 0 .2-.1-.2-.3zm-318.3-.3c0-.2-.1-.4-.3-.4-.2 0-.2.2-.1.4l.3.3.1-.3zm20.8-.9l-.4-.1c-.3 0-.5.1-.5.3 0 .2.2.2.5.1.2 0 .4-.2.4-.3zm1.8-.3c-.2-.2-.5-.4-.5-.2 0 .4.7 1 1 .9l-.5-.7zm-3.6-.4c.1-.3 0-.7-.5-1-.5-.3-.6-.3-.3 0 .2.5.3.6.4 1.3 0 .5.2.4.4-.3zM95 11c-.3-.2-.5-.4-.5-.2 0 .4.7 1 .9.9 0 0 0-.4-.4-.7zm345.7.3l-.4-.1c-.3 0-.5.1-.5.3 0 .2.2.2.5.1.2 0 .4-.2.4-.3zM1.1 10.8s-.3 0-.5.3c-.4.3-.3.3.1.1.4 0 .5-.3.4-.4zM207.7 6c0-.3-1.3-.7-1.7-.4-.2 0-.1.3.1.4.6.4 1.6.4 1.6 0zm2 0c0-.2-.3-.3-.6-.2-.3 0-.4 0-.3-.1.1-.2 0-.4-.1-.4-.2 0-.4.3-.4.5 0 .3.3.5.7.5.3 0 .6-.2.6-.4zm3 .2c-.3-.3-2.5-.5-2.5-.2 0 .2.6.3 1.4.3.7 0 1.3 0 1.2-.1zm5.4-1c0-.2-.1-.1-.1.3 0 .3 0 .5.1.4v-.6zm-214 0C4 5 3.6 4.9 3.3 5c-.4 0-.8-.1-.9-.3a.4.4 0 00-.5-.1c-.4.2.9 1 1.7 1 .3 0 .5-.2.5-.4zm199.7-.5c0-.1-.2-.3-.5-.4h-.3c.1.2 0 .4-.2.5-.2.1 0 .2.3.2.4 0 .7-.1.7-.3zm2.6.2c-.4-.3-2-.5-2-.2 0 .2.5.3 1.1.3h.9zM30.5 4.2c.1-.2 0-.5-.1-.5-.2 0-.3.3-.3.5l.1.5.3-.5zm188.9-.5a.7.7 0 00-.6-.3c-.2 0-.2.2 0 .3.7.4.8.4.6 0zm65.9 0a.7.7 0 00-.6-.3c-.2 0-.2.2.1.3.6.4.7.4.5 0zM30 3l-.3-.4c-.2 0-.4 0-.4.2s.2.3.4.3L30 3zm44.5 0l-.5-.3h-.3c.2.4.8.5.8.3zM363 2.5a.4.4 0 00-.6-.2c-.2.2-.2.3.1.5.5.3.7.2.5-.3zM55.9 2c-.5-.5-.5-.5-.5 0 0 .2.1.5.4.6.6.2.6 0 0-.6zm327.9 0c0-.2 0-.4-.3-.4-.2 0-.3.2-.2.4 0 .3.2.5.2.5l.3-.5zM22 1.4c-.1-.2-.2-.1-.2.2 0 .4 0 .6.2.5v-.7zm144.4.3c.2-.3.3-.5 0-.5-.1 0-.3.2-.4.5l-.1.4.5-.4zm215.3-.3c-.1-.2-.2-.1-.2.2 0 .4 0 .6.1.5.1-.2.2-.4 0-.7zm-358.4.2h-.6c-.3.1-.2.2.2.2.3 0 .5 0 .4-.2zm78.8-.1c0-.2-.2-.3-.4-.3-.1 0-.2.1 0 .3 0 .2.2.3.2.3.1 0 .2-.1.2-.3zm87 0c0-.4-.3-.4-1 0-.3.3-.3.3.3.3.4 0 .7-.1.7-.3zm3.2.2c-.3-.3-2.5-.4-2.5-.2s.6.3 1.3.3h1.2zm20.3-.5c-.1-.4-.3-.6-.4-.5-.1.1.2 1.1.4 1.1v-.6zm168 .1l-.3-.3v.5c.3.5.5.4.3-.2zM63.8 1.2c.2-.2 0-.3-.1-.3-.2 0-.3.1-.3.3l.1.3.3-.3zm171-.4c-.5-.3-.7-.1-.4.4.1.2.4.2.5.1.3-.1.2-.3 0-.5zm162.6.2l-.4-.2c-.2-.1-.4 0-.4.2 0 .3.2.4.4.3l.4-.3zM89.4.8h-.6c-.7.2-.6.4.1.3.4 0 .6-.2.5-.3zm72 0c.2-.1 0-.3-.1-.3-.2 0-.3.2-.3.4l.1.3.3-.3zm6.1 0c0-.1-.3-.3-.5-.3s-.2.2-.1.4c0 .1.3.3.5.3s.2-.2.1-.3zm31.3 0c-.3-.3-.5-.3-.8 0-.3.3-.2.4.4.4.6 0 .7-.1.4-.4zm33.2 0c0-.1-.1-.3-.3-.3-.2 0-.3.2-.2.4l.4.3.1-.3zM384 1c0-.3-.6-.4-.8-.1-.1.1 0 .3.3.3s.5 0 .5-.2zm48.3 168.5c0-.2.2-.3.3-.3.2 0 .4.1.5.3.1.2 0 .3-.3.3-.2 0-.5-.1-.5-.3zm8.9-5.7l-.2-.9c0-.4-.2-.9-.5-1-.4-.4-.4-.6 0-1 .7-1.4 1-1 1 1.1s0 2.2-.3 1.8zm-.7-5.2c-.1-.7.2-1.2.9-1.3l.2 1c0 1.1-.8 1.3-1 .3zm-.8-20c-.2-.2-.3-.6-.2-.8 0-.3.1-.2.2.1 0 .3.2.6.4.6.3 0 .6.1.7.3.3.5-.7.4-1.1-.2zm1.1-28.3c-.6-.3-.6-.3 0-.3.5 0 .8.1.8.3v.3l-.8-.3zm-.3-1c-.1-.1 0-.3.4-.3s.7.2.7.3c0 .2-.2.4-.5.4-.2 0-.5-.2-.6-.4zm.4-24.5h.6c.1.1 0 .2-.4.2s-.4 0-.2-.2zm0-18.9h.6c.1.2 0 .2-.4.2s-.4 0-.2-.2zm0-.7c0-.2.2-.4.4-.5.2-.1.3 0 .3.3s-.1.5-.3.5c-.2 0-.3-.1-.3-.3zm-.1-2.1c.4-.2.5-.3.2-.5-.5-.2-.2-1 .3-1 .7 0 .2 1.5-.5 1.6-.6 0-.6 0 0-.1zM0 27.6c0-.4.1-.5.2-.2v.6c-.1 0-.2-.1-.2-.4zm1.8-24c-.7-.3-.7-.6.2-1.4l.7-.7v.8c0 .5-.1.8-.3.8-.2 0-.1.2.2.3.5.3.2.4-.8.1zm389.4-3c-.5-.3-.2-.3 1-.4 1 0 1.7.1 1.7.3 0 .3-2 .4-2.7 0z"/>
</svg>
